<svg xmlns="http://www.w3.org/2000/svg" viewBox="0 0 1075.03 239.38"><g id="Capa_2" data-name="Capa 2"><g id="Capa_1-2" data-name="Capa 1"><circle cx="238.62" cy="4.07" r="4.07"/><circle cx="56.01" cy="96.48" r="4.07"/><circle cx="789.95" cy="75.25" r="4.07"/><circle cx="633.51" cy="54.32" r="4.07"/><path d="M923.27,80.51a3.23,3.23,0,0,0,.71-2.22,2.67,2.67,0,0,0-1.49-2.61,3.57,3.57,0,0,0-1.25-.36,8.83,8.83,0,0,0-1-.07h-5.16l-2.47,11.93h2.12l1-4.91h2.49l.82,0a2.37,2.37,0,0,1,.72.16,1.12,1.12,0,0,1,.51.4,1.51,1.51,0,0,1,.19.81,9.34,9.34,0,0,1-.1,1.29,8.17,8.17,0,0,0-.1,1.31c0,.17,0,.33,0,.47a1.85,1.85,0,0,0,.11.45h2.19a1.4,1.4,0,0,1-.18-.48,4.38,4.38,0,0,1,0-.5,6.47,6.47,0,0,1,.09-1.24,8.52,8.52,0,0,0,.1-1.24,3.16,3.16,0,0,0-.26-1.31,1.73,1.73,0,0,0-1-.84v0A3.4,3.4,0,0,0,923.27,80.51Zm-2.09-.39a3.22,3.22,0,0,1-2.06.56h-3.06l.77-3.72h2.93a5.29,5.29,0,0,1,.8.05,2.1,2.1,0,0,1,.68.23,1.23,1.23,0,0,1,.48.48,1.54,1.54,0,0,1,.17.79A1.91,1.91,0,0,1,921.18,80.12Z"/><polygon points="924.35 87.18 933.09 87.18 933.46 85.38 926.78 85.38 927.49 81.89 933.66 81.89 934.01 80.18 927.86 80.18 928.51 77.06 935.15 77.06 935.52 75.25 926.83 75.25 924.35 87.18"/><path d="M941,75.25l-7.16,11.93h2.24L937.94,84h4.75l.48,3.15h2.12l-2.07-11.93Zm-2.19,7.19,2.87-5.08h0l.74,5.08Z"/><polygon points="948.86 75.25 946.38 87.18 954.49 87.18 954.86 85.38 948.84 85.38 950.94 75.25 948.86 75.25"/><path d="M962.06,75.25,954.9,87.18h2.24L959,84h4.75l.48,3.15h2.13l-2.08-11.93Zm-2.19,7.19,2.87-5.08h0l.73,5.08Z"/><path d="M970.42,82.55l1.53-7.3h-2.09l-1.47,6.94c0,.26-.1.53-.14.79a5.32,5.32,0,0,0-.06.81,3.34,3.34,0,0,0,1.32,2.78,4.19,4.19,0,0,0,1.41.67,6.14,6.14,0,0,0,1.68.23,6.6,6.6,0,0,0,2.65-.46,4.83,4.83,0,0,0,1.63-1.16,4.69,4.69,0,0,0,.89-1.54,12.92,12.92,0,0,0,.43-1.57l1.57-7.49h-2.08l-1.58,7.35a5.86,5.86,0,0,1-.51,1.52,3.39,3.39,0,0,1-.73.93,2.32,2.32,0,0,1-.92.48,4.33,4.33,0,0,1-1.11.13,4.09,4.09,0,0,1-1-.11,2.18,2.18,0,0,1-.82-.36,1.61,1.61,0,0,1-.54-.66,2.2,2.2,0,0,1-.18-1c0-.16,0-.33.05-.49A4,4,0,0,1,970.42,82.55Z"/><path d="M989.66,75.68a3.58,3.58,0,0,0-1.24-.36,9.12,9.12,0,0,0-1-.07h-5.17l-2.47,11.93h2.12l1-4.91h2.49l.82,0a2.24,2.24,0,0,1,.72.16,1.12,1.12,0,0,1,.51.4,1.43,1.43,0,0,1,.19.81,8,8,0,0,1-.1,1.29,8.17,8.17,0,0,0-.1,1.31c0,.17,0,.33,0,.47a2.46,2.46,0,0,0,.11.45h2.19a1.38,1.38,0,0,1-.17-.48,2.89,2.89,0,0,1,0-.5,5.75,5.75,0,0,1,.08-1.24,7.32,7.32,0,0,0,.1-1.24,3.16,3.16,0,0,0-.26-1.31,1.7,1.7,0,0,0-1-.84v0a3.37,3.37,0,0,0,2-1,3.19,3.19,0,0,0,.72-2.22,2.7,2.7,0,0,0-1.5-2.61Zm-1.3,4.44a3.25,3.25,0,0,1-2.07.56h-3.06L984,77h2.93a5.21,5.21,0,0,1,.8.05,2.08,2.08,0,0,1,.69.23,1.15,1.15,0,0,1,.47.48,1.54,1.54,0,0,1,.18.79A1.93,1.93,0,0,1,988.36,80.12Z"/><polygon points="996.15 75.25 994.07 75.25 991.58 87.18 993.66 87.18 996.15 75.25"/><polygon points="1014.72 81.73 1014.37 83.54 1019.32 83.54 1019.66 81.73 1014.72 81.73"/><path d="M916.78,107.24a13,13,0,0,0,1.91-.12,6.27,6.27,0,0,0,1.42-.36,5.31,5.31,0,0,0,1.12-.63,10,10,0,0,0,1-.9,4.58,4.58,0,0,0,.84-1.09,7.94,7.94,0,0,0,.58-1.3,7.81,7.81,0,0,0,.35-1.34,6.76,6.76,0,0,0,.12-1.2A5.21,5.21,0,0,0,923,96.55a4.59,4.59,0,0,0-3.49-1.24h-4.38l-2.5,11.93ZM916.83,97h2.61a2.38,2.38,0,0,1,1.94.85,3.84,3.84,0,0,1,.68,2.43,5.74,5.74,0,0,1-.07.81,6.09,6.09,0,0,1-.27,1.08,7.09,7.09,0,0,1-.52,1.18,4.77,4.77,0,0,1-.81,1.08,4,4,0,0,1-1.16.79,3.87,3.87,0,0,1-1.58.31H915Z"/><polygon points="937.63 107.24 946.38 107.24 946.74 105.44 940.06 105.44 940.78 101.94 946.94 101.94 947.29 100.24 941.14 100.24 941.8 97.11 948.43 97.11 948.8 95.31 940.11 95.31 937.63 107.24"/><path d="M965.2,95.3a4,4,0,0,0-1.4.77,3.27,3.27,0,0,0-.87,1.18,3.63,3.63,0,0,0-.3,1.48,2.54,2.54,0,0,0,.36,1.41,3.11,3.11,0,0,0,.88.89,4.23,4.23,0,0,0,1.07.52c.37.12.68.21.95.28l1.07.3a4.53,4.53,0,0,1,.91.39,2.05,2.05,0,0,1,.64.56,1.38,1.38,0,0,1,.24.83,1.52,1.52,0,0,1-.26.9,2.09,2.09,0,0,1-.64.58,3.07,3.07,0,0,1-.86.33,4.2,4.2,0,0,1-.9.1,3.31,3.31,0,0,1-2.05-.57,2.17,2.17,0,0,1-.69-2h-2a4.93,4.93,0,0,0,.27,1.92,3.34,3.34,0,0,0,.9,1.31,3.77,3.77,0,0,0,1.45.75,7,7,0,0,0,1.91.24,6.7,6.7,0,0,0,2.29-.34,4.56,4.56,0,0,0,1.54-.89,3.31,3.31,0,0,0,.86-1.24,3.77,3.77,0,0,0,.27-1.39,3.08,3.08,0,0,0-.33-1.52,2.66,2.66,0,0,0-.85-.94,4.22,4.22,0,0,0-1.17-.56c-.43-.14-.85-.26-1.28-.37s-.65-.16-1-.25a3.61,3.61,0,0,1-.79-.33,1.88,1.88,0,0,1-.55-.49,1.25,1.25,0,0,1-.2-.72,1.43,1.43,0,0,1,.29-.94,2,2,0,0,1,.66-.53,2.59,2.59,0,0,1,.77-.23,4,4,0,0,1,.6,0,2.84,2.84,0,0,1,1.83.49,2.05,2.05,0,0,1,.62,1.61h2a4,4,0,0,0-.3-1.78,3,3,0,0,0-.94-1.18,3.94,3.94,0,0,0-1.42-.65,7.5,7.5,0,0,0-1.75-.2A5.76,5.76,0,0,0,965.2,95.3Z"/><path d="M985,107.24h4.19a13.11,13.11,0,0,0,1.92-.12,6.18,6.18,0,0,0,1.41-.36,5.31,5.31,0,0,0,1.12-.63,10,10,0,0,0,1-.9,4.34,4.34,0,0,0,.84-1.09,7.94,7.94,0,0,0,.58-1.3,8.91,8.91,0,0,0,.36-1.34,7.75,7.75,0,0,0,.11-1.2,5.26,5.26,0,0,0-1.18-3.75,4.63,4.63,0,0,0-3.5-1.24h-4.38ZM991.81,97a2.38,2.38,0,0,1,1.94.85,3.84,3.84,0,0,1,.68,2.43,5.74,5.74,0,0,1-.07.81,6.09,6.09,0,0,1-.27,1.08,7.09,7.09,0,0,1-.52,1.18,4.49,4.49,0,0,1-.81,1.08,4,4,0,0,1-1.16.79,3.87,3.87,0,0,1-1.58.31h-2.61L989.2,97Z"/><polygon points="1010.01 107.24 1018.75 107.24 1019.12 105.44 1012.43 105.44 1013.15 101.94 1019.32 101.94 1019.67 100.24 1013.51 100.24 1014.17 97.11 1020.8 97.11 1021.17 95.31 1012.48 95.31 1010.01 107.24"/><path d="M916.78,127.3a13,13,0,0,0,1.91-.12,6.26,6.26,0,0,0,1.42-.37,4.87,4.87,0,0,0,1.12-.62,11.41,11.41,0,0,0,1-.9,4.79,4.79,0,0,0,.84-1.09,8,8,0,0,0,.58-1.31,7.48,7.48,0,0,0,.35-1.33,6.76,6.76,0,0,0,.12-1.2,5.21,5.21,0,0,0-1.19-3.75,4.59,4.59,0,0,0-3.49-1.25h-4.38l-2.5,11.94Zm.05-10.23h2.61a2.35,2.35,0,0,1,1.94.85,3.83,3.83,0,0,1,.68,2.42,5.74,5.74,0,0,1-.07.81,6.18,6.18,0,0,1-.27,1.09,7.09,7.09,0,0,1-.52,1.18,4.77,4.77,0,0,1-.81,1.08,3.81,3.81,0,0,1-1.16.78,3.71,3.71,0,0,1-1.58.31H915Z"/><polygon points="935.45 117.17 935.82 115.36 927.13 115.36 924.65 127.3 933.39 127.3 933.76 125.49 927.08 125.49 927.79 122 933.96 122 934.31 120.29 928.16 120.29 928.82 117.17 935.45 117.17"/><polygon points="939.11 118.44 942.79 127.3 945.08 127.3 947.55 115.36 945.46 115.36 943.64 124.27 943.61 124.27 939.95 115.36 937.66 115.36 935.18 127.3 937.27 127.3 939.08 118.44 939.11 118.44"/><polygon points="948.19 117.17 952.11 117.17 950.01 127.3 952.1 127.3 954.2 117.17 958 117.17 958.38 115.36 948.55 115.36 948.19 117.17"/><path d="M967.84,120.62a3.18,3.18,0,0,0,.72-2.21,2.65,2.65,0,0,0-1.49-2.61,3.89,3.89,0,0,0-1.25-.37c-.42,0-.76-.07-1-.07h-5.16l-2.48,11.94h2.12l1-4.92h2.49c.28,0,.56,0,.82,0a2.55,2.55,0,0,1,.72.15,1.08,1.08,0,0,1,.51.41,1.39,1.39,0,0,1,.19.8,8,8,0,0,1-.1,1.3,9.27,9.27,0,0,0-.1,1.31,3.59,3.59,0,0,0,0,.47,2.1,2.1,0,0,0,.11.45h2.19a1.53,1.53,0,0,1-.18-.49,2.74,2.74,0,0,1,0-.5,7.45,7.45,0,0,1,.08-1.24,7.29,7.29,0,0,0,.1-1.23,3,3,0,0,0-.26-1.31,1.68,1.68,0,0,0-1-.85v0A3.44,3.44,0,0,0,967.84,120.62Zm-2.08-.38a3.28,3.28,0,0,1-2.06.56h-3.06l.77-3.73h2.92a5.1,5.1,0,0,1,.8.06,2.07,2.07,0,0,1,.69.22,1.23,1.23,0,0,1,.48.48,1.65,1.65,0,0,1,.17.79A2,2,0,0,1,965.76,120.24Z"/><path d="M977.07,127.15a5.73,5.73,0,0,0,2-1.33,6.61,6.61,0,0,0,1.42-2.27,8.87,8.87,0,0,0,.54-3.26,5.69,5.69,0,0,0-.38-2.1,4.85,4.85,0,0,0-1-1.65,4.73,4.73,0,0,0-1.65-1.08,5.9,5.9,0,0,0-2.14-.38,6.43,6.43,0,0,0-2.31.43,6,6,0,0,0-2.06,1.33,6.6,6.6,0,0,0-1.47,2.28,8.67,8.67,0,0,0-.56,3.25,6,6,0,0,0,.35,2,4.63,4.63,0,0,0,1,1.66,4.87,4.87,0,0,0,1.66,1.1,5.9,5.9,0,0,0,2.27.4A6.51,6.51,0,0,0,977.07,127.15Zm-4.7-2.23a3.77,3.77,0,0,1-.85-2.62,7.51,7.51,0,0,1,.27-2,5.69,5.69,0,0,1,.79-1.77,4.21,4.21,0,0,1,1.32-1.27,3.53,3.53,0,0,1,1.86-.49,3,3,0,0,1,2.39,1,3.91,3.91,0,0,1,.81,2.62,7.94,7.94,0,0,1-.26,2,5.94,5.94,0,0,1-.79,1.77,4.14,4.14,0,0,1-1.3,1.27,3.31,3.31,0,0,1-1.82.49A3.08,3.08,0,0,1,972.37,124.92Z"/><polygon points="1014.37 123.65 1019.32 123.65 1019.67 121.85 1014.72 121.85 1014.37 123.65"/><path d="M916.24,138.6a4.1,4.1,0,0,1,1.32-1.27,3.44,3.44,0,0,1,1.86-.49,2.83,2.83,0,0,1,2,.65,2.51,2.51,0,0,1,.69,1.91h2.09a4.38,4.38,0,0,0-.3-1.82,3.44,3.44,0,0,0-1-1.34,4.31,4.31,0,0,0-1.51-.82,6.32,6.32,0,0,0-1.94-.28,6.52,6.52,0,0,0-2.32.43,5.89,5.89,0,0,0-2,1.33,6.56,6.56,0,0,0-1.47,2.27,8.51,8.51,0,0,0-.56,3.25,5.79,5.79,0,0,0,.35,2.06,4.66,4.66,0,0,0,2.67,2.76,6,6,0,0,0,2.27.4,5.75,5.75,0,0,0,1.77-.27,4.87,4.87,0,0,0,1.54-.82,5.06,5.06,0,0,0,1.19-1.39,6.13,6.13,0,0,0,.75-2h-2.09a5.6,5.6,0,0,1-.27.77,3.62,3.62,0,0,1-.55.91,3,3,0,0,1-.91.75,2.71,2.71,0,0,1-1.36.31,3.06,3.06,0,0,1-2.42-1,3.77,3.77,0,0,1-.85-2.62,7.5,7.5,0,0,1,.26-2A6,6,0,0,1,916.24,138.6Z"/><path d="M937.43,143.61a9.09,9.09,0,0,0,.53-3.26,5.74,5.74,0,0,0-.37-2.11,4.76,4.76,0,0,0-2.7-2.72,5.7,5.7,0,0,0-2.14-.38,6.52,6.52,0,0,0-2.32.43,5.89,5.89,0,0,0-2,1.33,6.56,6.56,0,0,0-1.47,2.27,8.51,8.51,0,0,0-.56,3.25,5.79,5.79,0,0,0,.35,2.06,4.66,4.66,0,0,0,2.67,2.76,6,6,0,0,0,2.27.4,6.53,6.53,0,0,0,2.35-.44,5.79,5.79,0,0,0,2-1.32A6.71,6.71,0,0,0,937.43,143.61Zm-1.81-1.2a6.05,6.05,0,0,1-.79,1.77,4.37,4.37,0,0,1-1.3,1.27,3.41,3.41,0,0,1-1.82.48,3.06,3.06,0,0,1-2.42-1,3.77,3.77,0,0,1-.85-2.62,7.5,7.5,0,0,1,.26-2,6,6,0,0,1,.8-1.77,4.1,4.1,0,0,1,1.32-1.27,3.44,3.44,0,0,1,1.86-.49,3,3,0,0,1,2.38.95,3.94,3.94,0,0,1,.81,2.63A7.92,7.92,0,0,1,935.62,142.41Z"/><polygon points="948.25 145.55 942.23 145.55 944.34 135.42 942.25 135.42 939.77 147.35 947.88 147.35 948.25 145.55"/><polygon points="961.31 137.23 961.67 135.42 952.98 135.42 950.51 147.35 959.25 147.35 959.62 145.55 952.93 145.55 953.65 142.06 959.82 142.06 960.17 140.35 954.02 140.35 954.67 137.23 961.31 137.23"/><path d="M965.88,138.6a4.1,4.1,0,0,1,1.32-1.27,3.45,3.45,0,0,1,1.87-.49,2.8,2.8,0,0,1,2,.65,2.48,2.48,0,0,1,.7,1.91h2.09a4.38,4.38,0,0,0-.3-1.82,3.65,3.65,0,0,0-1-1.34,4.36,4.36,0,0,0-1.52-.82,6.27,6.27,0,0,0-1.94-.28,6.43,6.43,0,0,0-2.31.43,5.93,5.93,0,0,0-2.06,1.33,6.85,6.85,0,0,0-1.47,2.27,8.7,8.7,0,0,0-.56,3.25,6,6,0,0,0,.35,2.06,4.88,4.88,0,0,0,1,1.65,4.75,4.75,0,0,0,1.66,1.11,5.93,5.93,0,0,0,2.27.4,5.73,5.73,0,0,0,1.76-.27,4.67,4.67,0,0,0,1.54-.82,5.26,5.26,0,0,0,1.2-1.39,6.63,6.63,0,0,0,.75-2h-2.09a7.83,7.83,0,0,1-.28.77,3.35,3.35,0,0,1-.55.91,2.93,2.93,0,0,1-.91.75,2.7,2.7,0,0,1-1.35.31,3.08,3.08,0,0,1-2.43-1,3.82,3.82,0,0,1-.85-2.62,7.51,7.51,0,0,1,.27-2A5.94,5.94,0,0,1,965.88,138.6Z"/><path d="M979.14,138.6a4.1,4.1,0,0,1,1.32-1.27,3.45,3.45,0,0,1,1.87-.49,2.8,2.8,0,0,1,2,.65,2.48,2.48,0,0,1,.7,1.91h2.09a4.38,4.38,0,0,0-.3-1.82,3.65,3.65,0,0,0-1-1.34,4.36,4.36,0,0,0-1.52-.82,6.27,6.27,0,0,0-1.94-.28,6.43,6.43,0,0,0-2.31.43A5.93,5.93,0,0,0,978,136.9a6.85,6.85,0,0,0-1.47,2.27,8.7,8.7,0,0,0-.56,3.25,6,6,0,0,0,.35,2.06,4.88,4.88,0,0,0,1,1.65,4.75,4.75,0,0,0,1.66,1.11,5.93,5.93,0,0,0,2.27.4,5.73,5.73,0,0,0,1.76-.27,4.67,4.67,0,0,0,1.54-.82,5.26,5.26,0,0,0,1.2-1.39,6.63,6.63,0,0,0,.75-2h-2.09a7.83,7.83,0,0,1-.28.77,3.35,3.35,0,0,1-.55.91,2.93,2.93,0,0,1-.91.75,2.7,2.7,0,0,1-1.35.31,3.08,3.08,0,0,1-2.43-1,3.82,3.82,0,0,1-.85-2.62,7.51,7.51,0,0,1,.27-2A5.94,5.94,0,0,1,979.14,138.6Z"/><polygon points="991.29 135.42 988.8 147.35 990.89 147.35 993.38 135.42 991.29 135.42"/><path d="M997.12,136.9a6.7,6.7,0,0,0-1.47,2.27,8.7,8.7,0,0,0-.56,3.25,6,6,0,0,0,.35,2.06,4.88,4.88,0,0,0,1,1.65,4.75,4.75,0,0,0,1.66,1.11,5.9,5.9,0,0,0,2.27.4,6.52,6.52,0,0,0,2.34-.44,5.7,5.7,0,0,0,2-1.32,6.56,6.56,0,0,0,1.42-2.27,8.87,8.87,0,0,0,.54-3.26,5.74,5.74,0,0,0-.38-2.11,4.91,4.91,0,0,0-1.05-1.64,4.73,4.73,0,0,0-1.65-1.08,5.66,5.66,0,0,0-2.14-.38,6.43,6.43,0,0,0-2.31.43A5.84,5.84,0,0,0,997.12,136.9Zm4.31-.06a3,3,0,0,1,2.38.95,3.94,3.94,0,0,1,.81,2.63,7.94,7.94,0,0,1-.26,2,5.8,5.8,0,0,1-.79,1.77,4.25,4.25,0,0,1-1.3,1.27,3.37,3.37,0,0,1-1.81.48,3.08,3.08,0,0,1-2.43-1,3.82,3.82,0,0,1-.85-2.62,7.51,7.51,0,0,1,.27-2,5.94,5.94,0,0,1,.79-1.77,4.1,4.1,0,0,1,1.32-1.27A3.45,3.45,0,0,1,1001.43,136.84Z"/><polygon points="1004.5 131.89 1002.41 131.89 1001.13 134.28 1002.53 134.28 1004.5 131.89"/><polygon points="1010.56 147.35 1012.36 138.5 1012.4 138.5 1016.07 147.35 1018.36 147.35 1020.84 135.42 1018.75 135.42 1016.93 144.33 1016.89 144.33 1013.23 135.42 1010.94 135.42 1008.47 147.35 1010.56 147.35"/><path d="M916.78,167.41a13,13,0,0,0,1.91-.12,6.27,6.27,0,0,0,1.42-.36,5.31,5.31,0,0,0,1.12-.63,11.22,11.22,0,0,0,1-.89,4.85,4.85,0,0,0,.84-1.1,7.94,7.94,0,0,0,.58-1.3,7.58,7.58,0,0,0,.35-1.34,6.75,6.75,0,0,0,.12-1.19,5.22,5.22,0,0,0-1.19-3.76,4.59,4.59,0,0,0-3.49-1.24h-4.38l-2.5,11.93Zm.05-10.23h2.61a2.38,2.38,0,0,1,1.94.85,3.84,3.84,0,0,1,.68,2.43,5.74,5.74,0,0,1-.07.81,6.4,6.4,0,0,1-.27,1.09,7.38,7.38,0,0,1-.52,1.17,4.77,4.77,0,0,1-.81,1.08,4,4,0,0,1-1.16.79,3.87,3.87,0,0,1-1.58.31H915Z"/><polygon points="935.45 157.28 935.82 155.48 927.13 155.48 924.65 167.41 933.39 167.41 933.76 165.61 927.08 165.61 927.79 162.11 933.96 162.11 934.31 160.41 928.16 160.41 928.82 157.28 935.45 157.28"/><path d="M965.4,164.25h4.74l.49,3.16h2.12l-2.07-11.93h-2.21l-7.15,11.93h2.24Zm3.76-6.67h0l.73,5.08h-3.64Z"/><path d="M975.93,166.79a4.15,4.15,0,0,0,1.4.68,6.21,6.21,0,0,0,1.69.23,6.58,6.58,0,0,0,2.64-.46,4.71,4.71,0,0,0,1.63-1.17,4.65,4.65,0,0,0,.89-1.53,13.07,13.07,0,0,0,.44-1.57l1.57-7.49H984.1l-1.57,7.35a6.15,6.15,0,0,1-.52,1.51,3.13,3.13,0,0,1-.73.94,2.32,2.32,0,0,1-.92.48,4.33,4.33,0,0,1-1.11.13,4.62,4.62,0,0,1-1-.11,2.25,2.25,0,0,1-.82-.36,1.61,1.61,0,0,1-.54-.66,2.2,2.2,0,0,1-.18-1c0-.17,0-.33,0-.49s0-.32.09-.48l1.54-7.3h-2.09l-1.47,6.93c-.06.27-.11.54-.15.8a5.32,5.32,0,0,0-.06.81,3.5,3.5,0,0,0,.36,1.63A3.25,3.25,0,0,0,975.93,166.79Z"/><polygon points="991.02 167.41 993.12 157.28 996.92 157.28 997.3 155.48 987.47 155.48 987.11 157.28 991.03 157.28 988.93 167.41 991.02 167.41"/><path d="M998,166.19a4.59,4.59,0,0,0,1.66,1.1,5.93,5.93,0,0,0,2.27.41,6.52,6.52,0,0,0,2.34-.44,5.6,5.6,0,0,0,2-1.33,6.58,6.58,0,0,0,1.43-2.26,9.13,9.13,0,0,0,.53-3.26,5.74,5.74,0,0,0-.38-2.11,4.91,4.91,0,0,0-1.05-1.64,4.47,4.47,0,0,0-1.65-1.08,5.65,5.65,0,0,0-2.13-.39,6.45,6.45,0,0,0-2.32.44,5.93,5.93,0,0,0-2.06,1.33,6.75,6.75,0,0,0-1.47,2.27,8.67,8.67,0,0,0-.56,3.25,6,6,0,0,0,.35,2.06A5,5,0,0,0,998,166.19Zm1-5.77a6.17,6.17,0,0,1,.79-1.77,4.56,4.56,0,0,1,1.32-1.27,3.54,3.54,0,0,1,1.87-.48,3,3,0,0,1,2.38.95,3.94,3.94,0,0,1,.81,2.63,7.86,7.86,0,0,1-.26,2,5.84,5.84,0,0,1-.78,1.78,4.52,4.52,0,0,1-1.31,1.27,3.37,3.37,0,0,1-1.81.48,3.11,3.11,0,0,1-2.43-1,3.85,3.85,0,0,1-.85-2.63A7.57,7.57,0,0,1,998.94,160.42Z"/><path d="M1019.45,160.73a3.16,3.16,0,0,0,.72-2.21,2.67,2.67,0,0,0-1.5-2.61,3.83,3.83,0,0,0-1.24-.37q-.64-.06-1-.06h-5.17l-2.47,11.93h2.12l1-4.91h2.49l.82,0a2.55,2.55,0,0,1,.72.15,1.14,1.14,0,0,1,.51.41,1.41,1.41,0,0,1,.19.8,8,8,0,0,1-.1,1.3,8.17,8.17,0,0,0-.1,1.31c0,.17,0,.33,0,.47a2.46,2.46,0,0,0,.11.45h2.19a1.26,1.26,0,0,1-.17-.48,2.92,2.92,0,0,1,0-.51,5.66,5.66,0,0,1,.08-1.23,7.41,7.41,0,0,0,.1-1.24,3.12,3.12,0,0,0-.26-1.31,1.7,1.7,0,0,0-1-.84v0A3.38,3.38,0,0,0,1019.45,160.73Zm-2.08-.38a3.31,3.31,0,0,1-2.07.56h-3.06l.77-3.73h2.93a5.19,5.19,0,0,1,.8.06,2.08,2.08,0,0,1,.69.23,1.25,1.25,0,0,1,.47.47,1.58,1.58,0,0,1,.18.8A1.93,1.93,0,0,1,1017.37,160.35Z"/><path d="M1045.48,52.68a100.8,100.8,0,0,0-172.1,71.17,2.81,2.81,0,0,0,2.19,2.78,2.74,2.74,0,0,0,3.27-2.68c-.22-57,74.86-134.47,153.6-67.42,19.4,16.53,27.94,42,27.94,67.42,0,52.59-33.6,95.37-86.18,95.37h-3.54c-52.44,0-127.77-56.76-147.62-72.48,17.66-4.21,38.3-24,51.37-50.18,15.14-30.26,15.51-59.88,1-79.21C870,10.24,862.09,5.88,851.89,4.52c-9.42-1.27-20.65.16-32.82,3.91-1.8.55-3.62,1.17-5.46,1.83-17.12,6.11-35.82,16.54-53.89,30.47H665.65c-2-.21-2.57,1.35-3.41,3.65l-29.51,81.07c-9.88,27.17-20,54.92-26,71.34l.41-153.26a2.64,2.64,0,0,0,0-.28,1.36,1.36,0,0,0,0-.21h0a2.71,2.71,0,0,0-.79-1.93,2.77,2.77,0,0,0-1.93-.8H501.13l-.61-1C491,23.5,474,14.64,451.28,13.65c-19.49-.86-38.48,9.42-50.26,26.66H384.3c-.12,0-.23,0-.35,0H350.86a2.73,2.73,0,0,0-1,5.28c.83.32,20.33,8,11.84,31.53a2.74,2.74,0,0,0-.13.62l-6.12,16.8c0-12.36-3-25.49-10.15-36-8.09-11.91-20.13-18.21-34.81-18.21-11.8,0-21.31,3.68-28.28,10.94a39.12,39.12,0,0,0-6.87,10V43a2.69,2.69,0,0,0-2.69-2.69h-150A77.92,77.92,0,0,0,61.9,11.68c-23.46,0-46.2,14.08-56.55,35C-3.16,63.93-1.46,82.41,10,97.43c9.13,11.95,24.84,26.39,42.69,40.7l-26.8,73.59a2.75,2.75,0,0,0,1.55,3.47,2.87,2.87,0,0,0,2.28-.1q42-19.31,68.51-43.58c8,5.4,15.75,10.36,22.83,14.68l-9.24,25.4,0,.13v0a2.26,2.26,0,0,0-.11.43,2.45,2.45,0,0,0,0,.46v0a2.73,2.73,0,0,0,0,.41c0,.14,0,.27.08.4a2.83,2.83,0,0,0,.17.4,3.3,3.3,0,0,0,.18.32h0a2.42,2.42,0,0,0,.56.6c.11.09.23.16.35.24l0,0a1.94,1.94,0,0,0,.36.15,1.13,1.13,0,0,0,.24.08l.23.06.24,0h71.37a2.73,2.73,0,0,0,2.73-2.73v-.13a143.29,143.29,0,0,0,27.56,3c33.61,0,49-23.13,50.06-39.52,2-30.53-12.16-42.66-28.28-52.57-15.24-9.4-28.42-17.51-28.42-39.48,0-12.21,3.37-21.85,10.66-28,18.59-15.64,36.44-5.46,40.59-1,7.47,8.09,9.2,19.74,9.53,26.41v3.39c0,1.24,0,2,0,2.19a1.72,1.72,0,0,0,0,.24,1.75,1.75,0,0,0,0,.24,1.52,1.52,0,0,0,.09.28,1.14,1.14,0,0,0,.07.22c.05.09.09.18.14.26l.11.19c.06.09.13.16.2.25l.13.15L271,89s.07.07.11.09a2.94,2.94,0,0,0,.46.25l.19,0a1.12,1.12,0,0,0,.31.1l.23,0a1.45,1.45,0,0,0,.29,0h0a2.48,2.48,0,0,0,.54-.06l.17,0,.32-.1.19-.1a1.3,1.3,0,0,0,.26-.14,2.31,2.31,0,0,0,.19-.14l.22-.18.15-.17.18-.22a1.76,1.76,0,0,0,.12-.2,1.36,1.36,0,0,0,.13-.24,1,1,0,0,0,.08-.22,1.31,1.31,0,0,0,.09-.28,1.5,1.5,0,0,0,0-.24.85.85,0,0,0,0-.17c0-.22.12-1.64.08-3.85-1.13-19.87,31.68-57.32,56.62-22,10.81,15.29,11.09,38,6.28,52.78-.38,1.12-.48,1.3-1,2.77-5.09,12.82-13.4,26.64-22.31,39.44s-18.41,24.6-25.89,33.39a7.82,7.82,0,0,1-13.77-5.08v-80.4a2.8,2.8,0,0,0-2.19-2.78,2.74,2.74,0,0,0-3.27,2.68V211.09a2.35,2.35,0,0,0,0,.27,2.66,2.66,0,0,0,.39,1.16,2.05,2.05,0,0,0,1.43,1.17,2,2,0,0,0,.35.09,3.2,3.2,0,0,0,2.8-.9L279,209c2-1.79,4.08-3.65,6.25-5.58,14.63-13,34.75-30.78,50.67-55.1l-23.08,63.42a2.76,2.76,0,0,0,.59,2.83,2.8,2.8,0,0,0,2.08.84h74.25a2.06,2.06,0,0,0,.26,0h.17a3,3,0,0,0,.68-.21h0c29.92-13.75,53.82-29.92,72.63-49.4l4,3.77,3.62,3.38L457,211.72a2.74,2.74,0,0,0,2.57,3.67h59.07c10,8.53,18.75,15.64,25.36,20.58a.67.67,0,0,0,.11.07l.17.11a1.87,1.87,0,0,0,.32.15.27.27,0,0,1,.1.06h0l.3.07.15,0a1.87,1.87,0,0,0,.34,0h.11a2.42,2.42,0,0,0,.54-.07l.12,0a2.37,2.37,0,0,0,.53-.18h0a3.29,3.29,0,0,0,.46-.3l.09-.08a2.71,2.71,0,0,0,.41-.42h0l0-.06a2.5,2.5,0,0,0,.21-.35s0-.1.08-.16a.69.69,0,0,0,.05-.13L601.61,88.06l-.41,148.58v.07a2.72,2.72,0,0,1,0,.3l0,.24a2.41,2.41,0,0,0,.08.25,1.45,1.45,0,0,0,.09.25,2.18,2.18,0,0,0,.12.22c.05.08.08.16.14.24a1.51,1.51,0,0,0,.17.2c0,.06.1.13.16.19l.21.18a1.59,1.59,0,0,0,.21.15,1.14,1.14,0,0,0,.22.12l.26.13.06,0,.24.06.18,0a2.31,2.31,0,0,0,.52.06,2.05,2.05,0,0,0,.49-.06l.14,0a1.59,1.59,0,0,0,.33-.1l.15-.06a2.37,2.37,0,0,0,.35-.19l.07,0a2.17,2.17,0,0,0,.37-.31l.08-.07.24-.29.08-.13.16-.29c0-.06.05-.1.07-.16s0,0,0-.07L662.93,82.5c8.85-24.32,27.11-28.18,69.46-28.18h7.23A473.78,473.78,0,0,0,698.6,87c-40.94,36.73-62.71,70.89-64.68,101.52-1,15.54,3,26.3,12,32,4.54,2.89,10.19,4.32,16.78,4.32,12.17,0,27.54-4.88,45-14.47,31.83-17.48,64.29-46.87,85.88-79.69l-22.93,61.85c-6.75,18-18.61,18.13-18.75,18.22a2.5,2.5,0,0,0,1.32,4.62h18.37a2.49,2.49,0,0,0,2.34-1.63l26.28-70.88c14.75,9.26,50.7,31.83,68.52,43,41.3,25.86,75.61,39,102,39h2.39c55.53,0,101.49-44.41,102-99.93A100.25,100.25,0,0,0,1045.48,52.68ZM17.8,53.25a4.23,4.23,0,0,0,.86-1.72C28.4,32.87,48.76,20.34,69.9,20.34c20.7,0,29.73,5.13,43.54,20H60.19a2.73,2.73,0,0,0-.92,5.29,23.93,23.93,0,0,1,12.07,11.9c4,8.54,3.57,19.63-1.29,33h0L54.66,132.75C37.94,119.25,3.23,84.38,17.8,53.25Zm27.66,148L65,147.69c9.45,7.19,16,11,25.49,17.5C82.45,175.46,64.41,191.16,45.46,201.22Zm48.15-39.46C83.46,154.83,77,150.09,66.9,142.34L85.14,92.21h0l.35-1,2.06-5.68c6.21-16.83,10-34.24,29.37-38.71C146.32,100.44,103,151.37,93.61,161.76Zm8.7,5.93q24.41-23.74,34.14-51.8a77.4,77.4,0,0,0-9.51-70c1.33-.11,2.71-.17,4.14-.17h18.15c2.87,1.24,19.35,9.49,11.46,31.36a3.46,3.46,0,0,0-.14.62L123,181C116.53,177,109.55,172.53,102.31,167.69Zm48.5,42.25c-7.52,0-12.65-1.89-15.25-5.6-1.84-2.63-2.6-6.27-2.25-11,10.19,5.62,26.22,12.1,43.57,16.6ZM207.44,52.8c-8.3,7.44-12.5,18.22-12.5,32.06,0,25,15.33,33.06,31.11,41.54,18.75,10.07,28.45,21.88,26.54,50.11-1.76,26.18-30,42-65.64,31.13-20.69-6.31-41.38-12.57-52-18.57l-1-.57a80,80,0,0,1,2.44-8.73l11.9-32.7a41,41,0,0,1,38.48-26.95h15a2.83,2.83,0,0,0,2.87-2.44,2.74,2.74,0,0,0-2.72-3H160.06l14.75-40.5c5.83-14.32,13.11-25.32,41.36-27.2A37.91,37.91,0,0,0,207.44,52.8Zm310-7-8.85,24.3a64.48,64.48,0,0,0-4.77-24.3ZM451,19.1c19.92,0,29.72,8.19,38.44,21.2H412.67C423,27.05,430.2,19.1,451,19.1ZM404.13,69.16C404.59,58,407.47,49,409.6,45.77c0,0,6.22.07,15.5,0h22.51l-25.83,70.95c-13.3-13.18-17.46-29.5-17.69-43.29C404.09,72.41,404.09,70.23,404.13,69.16ZM393.42,194.65a23.24,23.24,0,0,1-21.85,15.29H351.86c-7.52,0-12.65-1.89-15.25-5.6-3.41-4.88-3.08-13.23,1-25.47L351,142.18a34.94,34.94,0,0,1,32.82-23H403a2.89,2.89,0,0,0,2.88-2.58,2.74,2.74,0,0,0-2.73-2.87h-41.8l14.73-40.48c3.85-9.46,8.33-17.47,19-22.37C387.53,68.15,389,86,399.29,99.41c4.53,5.87,11.48,13.72,20.39,23.08Zm1.17,12.71,29.3-80.48c10,10.29,19.35,19.62,33,32.55C439.78,177.09,421.06,194.55,394.59,207.36Zm65.94-52c-13.62-12.94-23.81-23.07-34.54-34.2l17.11-47a43.07,43.07,0,0,1,40.44-28.32h7.4c6,12.33,4.69,28.43.49,45.42a4.29,4.29,0,0,0-.48,1.95.06.06,0,0,0,0,0C485.37,114.67,472.41,142.27,460.53,155.33Zm6.77,6.41a180.4,180.4,0,0,0,14.6-18.37l-8.7,23.91C471.22,165.44,469.25,163.58,467.3,161.74ZM496,209.94c-7.53,0-12.65-1.89-15.25-5.6-3.13-4.47-3.1-11.87.09-22.5,11,10.07,21.68,19.63,31.46,28.1Zm41.28,13.87c-3.19-2.57-6.61-5.4-10.21-8.42h6.72a2.83,2.83,0,0,0,2.86-2.47,2.72,2.72,0,0,0-2.72-3H520.66C509,200,496,188.3,482.8,176.19l12.9-35.44a32.76,32.76,0,0,1,30.79-21.56h24.75a2.83,2.83,0,0,0,2.87-2.44,2.73,2.73,0,0,0-2.72-3H505.53l17-46.66c6.26-12.36,16.34-21,46.24-21.31h32ZM813.61,15.35c1.83-.69,3.65-1.35,5.46-1.92,11.91-3.8,23.12-4.78,32-.9A2.73,2.73,0,0,0,849.54,14c-.09.24-9.56,22-30.47,26.06a35.22,35.22,0,0,1-5.46.6q-.63,0-1.26,0a4.2,4.2,0,0,0-.51,0h-43C782.23,31,798.28,21.18,813.61,15.35ZM797.32,141a1.36,1.36,0,0,1,.16-2.39,1.36,1.36,0,0,0-.16,2.39Zm.27-2.42a1.59,1.59,0,0,1,.33-.09c.58-.05,1.16-.12,1.74-.2-.58.08-1.16.15-1.74.2A1.15,1.15,0,0,0,797.59,138.61Zm2.36-.32q1-.14,2-.33l22.15-59.74a2.5,2.5,0,0,0-2.34-3.37H816a2.49,2.49,0,0,0-2.34,1.63l-4.16,11.21a191.56,191.56,0,0,1-27.31,49.77q-1.93,2.53-4,5.16c-20.22,25.58-36.79,39.64-63,54C690.42,210.24,669.92,214,658.9,207c-7.13-4.54-10.32-13.64-9.46-27C653,124.19,718.32,75.59,749.16,54.32h89.55a2.73,2.73,0,0,0,2.57-1.79l2.92-8,.08-.17,1.65-4.55.65-1.75a.11.11,0,0,0,0-.06l8-22a2.74,2.74,0,0,0,.11-1.44,25.53,25.53,0,0,1,6.49,6.17C890.31,59.72,846.88,129.9,802,138Q801,138.16,800,138.29Z"/><polygon points="185.49 215.39 212.31 215.39 189.2 211.1 185.49 215.39"/></g></g></svg>