<svg xmlns="http://www.w3.org/2000/svg" viewBox="0 0 959.56 504.31"><g id="Capa_2" data-name="Capa 2"><g id="Capa_1-2" data-name="Capa 1"><circle cx="19.83" cy="167.48" r="4.07"/><circle cx="757.66" cy="63.79" r="4.07"/><path d="M955.49,402.24a4.07,4.07,0,1,0,4.07,4.07A4.07,4.07,0,0,0,955.49,402.24Z"/><path d="M493.72,8.14a4.07,4.07,0,1,0-4.07-4.07A4.07,4.07,0,0,0,493.72,8.14Z"/><path d="M324.79,253.22a4.07,4.07,0,1,0,4.07,4.07A4.07,4.07,0,0,0,324.79,253.22Z"/><path d="M104,328.12c-.38,1-.77,2-1.16,3l-.16.42a3,3,0,0,1,0-.42A4,4,0,0,1,104,328.12Z"/><path d="M136.52,336.78l-27.15,74.6c.27-1.54.61-3.05,1-4.49L133.25,344C134.29,341.5,135.36,339.09,136.52,336.78Z"/><path d="M165,374a4.07,4.07,0,1,1,4.07-4.07A4.07,4.07,0,0,1,165,374Z"/><circle cx="165.01" cy="369.96" r="4.07"/><path d="M173.81,134c-.2.83-.4,1.64-.59,2.39,0,.19-.1.38-.14.57a3.55,3.55,0,0,1-.06-.57A4,4,0,0,1,173.81,134Z"/><path d="M693.82,245.13H697c.35,0,.69,0,1,0a2.82,2.82,0,0,1,.9.19,1.29,1.29,0,0,1,.64.51,1.82,1.82,0,0,1,.24,1,11.07,11.07,0,0,1-.12,1.63,10,10,0,0,0-.13,1.64,5.28,5.28,0,0,0,0,.59,2.49,2.49,0,0,0,.14.57h2.75a1.8,1.8,0,0,1-.22-.61,3.35,3.35,0,0,1-.05-.63,8.08,8.08,0,0,1,.1-1.55,10.26,10.26,0,0,0,.13-1.56,3.86,3.86,0,0,0-.33-1.65,2.18,2.18,0,0,0-1.27-1.06v0a4.25,4.25,0,0,0,2.5-1.29,4,4,0,0,0,.9-2.78,3.57,3.57,0,0,0-.55-2.13,3.71,3.71,0,0,0-1.33-1.15,4.73,4.73,0,0,0-1.56-.46,11.55,11.55,0,0,0-1.28-.08H693l-3.11,15h2.67Zm1.38-6.68h3.68a6.58,6.58,0,0,1,1,.07,2.8,2.8,0,0,1,.86.28,1.64,1.64,0,0,1,.6.6,2.11,2.11,0,0,1,.22,1,2.43,2.43,0,0,1-.9,2,4.08,4.08,0,0,1-2.59.7h-3.84Z"/><polygon points="716.1 249.03 707.7 249.03 708.6 244.64 716.35 244.64 716.79 242.5 709.06 242.5 709.88 238.57 718.22 238.57 718.68 236.31 707.76 236.31 704.65 251.3 715.64 251.3 716.1 249.03"/><path d="M719.42,251.3l2.31-4h6l.61,4H731l-2.61-15h-2.77l-9,15Zm7-12.35h0l.93,6.39h-4.58Z"/><polygon points="742.98 249.03 735.42 249.03 738.07 236.31 735.44 236.31 732.33 251.3 742.52 251.3 742.98 249.03"/><path d="M748.17,247.33h6l.61,4h2.67l-2.61-15H752l-9,15h2.81Zm4.72-8.38h0l.93,6.39h-4.58Z"/><path d="M761.4,250.52a5.06,5.06,0,0,0,1.76.85,7.75,7.75,0,0,0,2.12.29,8.07,8.07,0,0,0,3.32-.58,5.88,5.88,0,0,0,2-1.46,5.8,5.8,0,0,0,1.12-1.93,17,17,0,0,0,.55-2l2-9.41h-2.63l-2,9.24a7.37,7.37,0,0,1-.65,1.9,4,4,0,0,1-.91,1.17,2.93,2.93,0,0,1-1.16.6,5.59,5.59,0,0,1-1.4.17,5.7,5.7,0,0,1-1.28-.14,2.91,2.91,0,0,1-1-.45,2.13,2.13,0,0,1-.68-.83,2.84,2.84,0,0,1-.22-1.27c0-.21,0-.41.06-.62s.07-.4.11-.6l1.93-9.17h-2.62L760,245c-.07.34-.13.67-.18,1a6.81,6.81,0,0,0-.07,1,4.38,4.38,0,0,0,.45,2A4,4,0,0,0,761.4,250.52Z"/><path d="M776.93,251.3l1.29-6.17h3.12c.35,0,.7,0,1,0a2.83,2.83,0,0,1,.91.19,1.33,1.33,0,0,1,.64.51,1.82,1.82,0,0,1,.24,1,9.86,9.86,0,0,1-.13,1.63,11.21,11.21,0,0,0-.12,1.64,5.28,5.28,0,0,0,0,.59,2.49,2.49,0,0,0,.14.57h2.75a1.82,1.82,0,0,1-.23-.61,4.46,4.46,0,0,1-.05-.63,8.09,8.09,0,0,1,.11-1.55,10.25,10.25,0,0,0,.12-1.56,4,4,0,0,0-.32-1.65,2.18,2.18,0,0,0-1.27-1.06v0a4.25,4.25,0,0,0,2.5-1.29,4,4,0,0,0,.9-2.78,3.36,3.36,0,0,0-1.88-3.28,4.73,4.73,0,0,0-1.56-.46,11.7,11.7,0,0,0-1.29-.08h-6.48l-3.11,15Zm2.67-12.85h3.68a6.45,6.45,0,0,1,1,.07,2.87,2.87,0,0,1,.87.28,1.55,1.55,0,0,1,.59.6,2,2,0,0,1,.22,1,2.42,2.42,0,0,1-.89,2,4.1,4.1,0,0,1-2.59.7h-3.84Z"/><polygon points="794.87 236.31 792.24 236.31 789.11 251.3 791.74 251.3 794.87 236.31"/><polygon points="824.41 244.46 818.19 244.46 817.75 246.72 823.97 246.72 824.41 244.46"/><path d="M697.55,276.35a7.88,7.88,0,0,0,1.77-.46,6,6,0,0,0,1.41-.79A13.75,13.75,0,0,0,702,274a6.13,6.13,0,0,0,1.05-1.38,9.9,9.9,0,0,0,.73-1.63,11,11,0,0,0,.45-1.68,9.62,9.62,0,0,0,.14-1.5,6.57,6.57,0,0,0-1.49-4.72,5.79,5.79,0,0,0-4.39-1.56H693l-3.15,15h5.27A16.58,16.58,0,0,0,697.55,276.35Zm-2.35-12.7h3.28a2.94,2.94,0,0,1,2.44,1.07,4.76,4.76,0,0,1,.86,3,6.39,6.39,0,0,1-.1,1,8,8,0,0,1-.33,1.37,11,11,0,0,1-.65,1.48,6.15,6.15,0,0,1-1,1.35,5.22,5.22,0,0,1-1.46,1,4.74,4.74,0,0,1-2,.39H693Z"/><polygon points="734.91 263.77 735.37 261.51 724.45 261.51 721.34 276.5 732.33 276.5 732.79 274.23 724.39 274.23 725.29 269.84 733.04 269.84 733.48 267.7 725.75 267.7 726.57 263.77 734.91 263.77"/><path d="M754.22,262.46a4.28,4.28,0,0,0-1.09,1.48,4.66,4.66,0,0,0-.38,1.87,3.15,3.15,0,0,0,.45,1.76,3.74,3.74,0,0,0,1.11,1.13,5.71,5.71,0,0,0,1.34.65c.46.15.86.26,1.2.35s.91.25,1.34.38a6.12,6.12,0,0,1,1.15.49,2.55,2.55,0,0,1,.79.7,1.7,1.7,0,0,1,.31,1.05,1.84,1.84,0,0,1-.33,1.12,2.6,2.6,0,0,1-.81.74,3.67,3.67,0,0,1-1.08.41,5.75,5.75,0,0,1-1.12.13,4.21,4.21,0,0,1-2.59-.72,2.75,2.75,0,0,1-.86-2.46h-2.52a6.34,6.34,0,0,0,.35,2.42,4.16,4.16,0,0,0,1.13,1.65,4.7,4.7,0,0,0,1.82.94,8.89,8.89,0,0,0,2.4.31,8.65,8.65,0,0,0,2.88-.43,5.63,5.63,0,0,0,1.93-1.13,4.26,4.26,0,0,0,1.09-1.55,4.88,4.88,0,0,0,.33-1.74,4,4,0,0,0-.41-1.92,3.47,3.47,0,0,0-1.07-1.18,5.25,5.25,0,0,0-1.47-.7c-.54-.17-1.07-.33-1.6-.47s-.82-.2-1.2-.31a4.36,4.36,0,0,1-1-.42,2.13,2.13,0,0,1-.68-.61,1.52,1.52,0,0,1-.25-.9,1.85,1.85,0,0,1,.35-1.19,2.41,2.41,0,0,1,.84-.66,3.38,3.38,0,0,1,1-.3,6.45,6.45,0,0,1,.75-.06,3.56,3.56,0,0,1,2.29.62,2.5,2.5,0,0,1,.78,2h2.52a4.92,4.92,0,0,0-.38-2.24,3.82,3.82,0,0,0-1.17-1.48,4.91,4.91,0,0,0-1.79-.82,9.1,9.1,0,0,0-2.2-.25,7.53,7.53,0,0,0-2.37.34A5.37,5.37,0,0,0,754.22,262.46Z"/><path d="M789.45,261.51H784l-3.15,15h5.27a16.34,16.34,0,0,0,2.4-.15,7.83,7.83,0,0,0,1.78-.46,6,6,0,0,0,1.41-.79A13.75,13.75,0,0,0,793,274a6.13,6.13,0,0,0,1-1.38,10.69,10.69,0,0,0,1.17-3.31,8.63,8.63,0,0,0,.15-1.5,6.62,6.62,0,0,0-1.49-4.72A5.81,5.81,0,0,0,789.45,261.51Zm3.16,7.27a7.2,7.2,0,0,1-.34,1.37,8.91,8.91,0,0,1-.65,1.48,5.81,5.81,0,0,1-1,1.35,5.22,5.22,0,0,1-1.46,1,4.74,4.74,0,0,1-2,.39h-3.27l2.24-10.71h3.28a2.91,2.91,0,0,1,2.43,1.07,4.7,4.7,0,0,1,.87,3A7.83,7.83,0,0,1,792.61,268.78Z"/><polygon points="812.27 276.5 823.25 276.5 823.72 274.23 815.32 274.23 816.22 269.84 823.97 269.84 824.41 267.7 816.68 267.7 817.5 263.77 825.84 263.77 826.3 261.51 815.38 261.51 812.27 276.5"/><path d="M697.55,301.55a7.38,7.38,0,0,0,1.77-.46,6,6,0,0,0,1.41-.79,13.75,13.75,0,0,0,1.3-1.12,6.13,6.13,0,0,0,1.05-1.38,9.9,9.9,0,0,0,.73-1.63,11,11,0,0,0,.45-1.68,9.63,9.63,0,0,0,.14-1.51,6.58,6.58,0,0,0-1.49-4.71,5.79,5.79,0,0,0-4.39-1.56H693l-3.15,15h5.27A16.58,16.58,0,0,0,697.55,301.55Zm-2.35-12.7h3.28a3,3,0,0,1,2.44,1.07,4.76,4.76,0,0,1,.86,3,6.5,6.5,0,0,1-.1,1,8,8,0,0,1-.33,1.37,11,11,0,0,1-.65,1.48,6.15,6.15,0,0,1-1,1.35,5.22,5.22,0,0,1-1.46,1,4.74,4.74,0,0,1-2,.39H693Z"/><polygon points="718.6 288.98 719.06 286.7 708.14 286.7 705.03 301.7 716.01 301.7 716.48 299.43 708.08 299.43 708.98 295.04 716.73 295.04 717.17 292.9 709.44 292.9 710.26 288.98 718.6 288.98"/><polygon points="730.69 301.7 733.8 286.7 731.18 286.7 728.89 297.9 728.85 297.9 724.25 286.7 721.37 286.7 718.26 301.7 720.89 301.7 723.15 290.57 723.2 290.57 727.82 301.7 730.69 301.7"/><polygon points="739.51 301.7 742.16 288.98 746.93 288.98 747.41 286.7 735.06 286.7 734.6 288.98 739.53 288.98 736.89 301.7 739.51 301.7"/><path d="M759.3,293.31a4,4,0,0,0,.9-2.78,3.36,3.36,0,0,0-1.88-3.28,4.73,4.73,0,0,0-1.56-.46,11.7,11.7,0,0,0-1.29-.08H749l-3.11,15h2.66l1.29-6.17H753c.35,0,.7,0,1,0a2.83,2.83,0,0,1,.91.19,1.33,1.33,0,0,1,.64.51,1.8,1.8,0,0,1,.24,1,10,10,0,0,1-.13,1.63,11.14,11.14,0,0,0-.12,1.65,5.35,5.35,0,0,0,0,.58,2.58,2.58,0,0,0,.13.57h2.75a2,2,0,0,1-.22-.61,4.46,4.46,0,0,1-.05-.63,8.09,8.09,0,0,1,.11-1.55,10.25,10.25,0,0,0,.12-1.56,3.93,3.93,0,0,0-.32-1.64,2.13,2.13,0,0,0-1.27-1.07v0A4.33,4.33,0,0,0,759.3,293.31Zm-2.62-.48a4.1,4.1,0,0,1-2.59.7h-3.84l1-4.68h3.68a6.45,6.45,0,0,1,1,.07,2.42,2.42,0,0,1,.87.29,1.52,1.52,0,0,1,.59.59,2,2,0,0,1,.22,1A2.42,2.42,0,0,1,756.68,292.83Z"/><path d="M770.89,301.51a7.06,7.06,0,0,0,2.54-1.67,8.19,8.19,0,0,0,1.78-2.84,11.25,11.25,0,0,0,.68-4.1,7.1,7.1,0,0,0-.48-2.65,6.07,6.07,0,0,0-1.32-2.06,5.92,5.92,0,0,0-2.07-1.36,7.26,7.26,0,0,0-2.68-.48,8.24,8.24,0,0,0-2.92.54,7.63,7.63,0,0,0-2.58,1.67,8.3,8.3,0,0,0-1.84,2.86,10.82,10.82,0,0,0-.71,4.08,7.53,7.53,0,0,0,.44,2.59,6.06,6.06,0,0,0,1.28,2.08,6,6,0,0,0,2.08,1.38,7.48,7.48,0,0,0,2.86.51A8,8,0,0,0,770.89,301.51Zm-5.9-2.79a4.75,4.75,0,0,1-1.07-3.3,9.7,9.7,0,0,1,.33-2.5,7.61,7.61,0,0,1,1-2.22,5.28,5.28,0,0,1,1.66-1.6,4.34,4.34,0,0,1,2.34-.61,3.7,3.7,0,0,1,3,1.2,4.91,4.91,0,0,1,1,3.29,10.08,10.08,0,0,1-.32,2.5,7.4,7.4,0,0,1-1,2.23,5.44,5.44,0,0,1-1.64,1.6,4.26,4.26,0,0,1-2.28.6A3.85,3.85,0,0,1,765,298.72Z"/><polygon points="824.41 294.85 818.19 294.85 817.75 297.12 823.97 297.12 824.41 294.85"/><path d="M702.88,312.94a5.36,5.36,0,0,0-1.9-1,7.9,7.9,0,0,0-2.44-.36,8,8,0,0,0-2.91.55,7.51,7.51,0,0,0-2.58,1.66,8.47,8.47,0,0,0-1.85,2.86,11,11,0,0,0-.7,4.09,7.52,7.52,0,0,0,.44,2.58,6.06,6.06,0,0,0,1.28,2.08,5.83,5.83,0,0,0,2.08,1.38,7.48,7.48,0,0,0,2.86.51,7.35,7.35,0,0,0,2.21-.34,5.9,5.9,0,0,0,1.93-1,6.24,6.24,0,0,0,1.51-1.74,8.26,8.26,0,0,0,.94-2.48h-2.62a9.42,9.42,0,0,1-.35,1,4.57,4.57,0,0,1-.69,1.14,4,4,0,0,1-1.15,1,3.42,3.42,0,0,1-1.7.39,3.85,3.85,0,0,1-3-1.2,4.75,4.75,0,0,1-1.07-3.3,9.7,9.7,0,0,1,.33-2.5,7.36,7.36,0,0,1,1-2.22,5.28,5.28,0,0,1,1.66-1.6,4.34,4.34,0,0,1,2.34-.61,3.56,3.56,0,0,1,2.51.82,3.13,3.13,0,0,1,.87,2.39h2.63a5.52,5.52,0,0,0-.38-2.28A4.23,4.23,0,0,0,702.88,312.94Z"/><path d="M720,313.39a5.79,5.79,0,0,0-2.07-1.36,7.27,7.27,0,0,0-2.69-.48,8,8,0,0,0-2.91.55,7.6,7.6,0,0,0-2.58,1.66,8.47,8.47,0,0,0-1.85,2.86,11,11,0,0,0-.7,4.09,7.52,7.52,0,0,0,.44,2.58,6.06,6.06,0,0,0,1.28,2.08,5.83,5.83,0,0,0,2.08,1.38,7.48,7.48,0,0,0,2.86.51,8.24,8.24,0,0,0,2.94-.55A7.06,7.06,0,0,0,719.3,325a8.19,8.19,0,0,0,1.78-2.84,11.25,11.25,0,0,0,.68-4.1,7,7,0,0,0-.48-2.64A6,6,0,0,0,720,313.39Zm-1.15,7.29a7.4,7.4,0,0,1-1,2.23,5.44,5.44,0,0,1-1.64,1.6,4.27,4.27,0,0,1-2.28.61,3.86,3.86,0,0,1-3-1.2,4.75,4.75,0,0,1-1.07-3.3,9.7,9.7,0,0,1,.33-2.5,7.36,7.36,0,0,1,1-2.22,5.28,5.28,0,0,1,1.66-1.6,4.34,4.34,0,0,1,2.34-.61,3.71,3.71,0,0,1,3,1.2,4.94,4.94,0,0,1,1,3.3A10,10,0,0,1,718.81,320.68Z"/><polygon points="729.76 311.91 727.14 311.91 724.03 326.9 734.21 326.9 734.68 324.63 727.12 324.63 729.76 311.91"/><polygon points="751.09 314.17 751.55 311.91 740.63 311.91 737.52 326.9 748.5 326.9 748.96 324.63 740.56 324.63 741.47 320.24 749.22 320.24 749.66 318.1 741.93 318.1 742.75 314.17 751.09 314.17"/><path d="M756.84,315.9a5.36,5.36,0,0,1,1.65-1.6,4.4,4.4,0,0,1,2.35-.61,3.53,3.53,0,0,1,2.5.82,3.13,3.13,0,0,1,.88,2.39h2.62a5.36,5.36,0,0,0-.38-2.28,4.3,4.3,0,0,0-1.2-1.68,5.32,5.32,0,0,0-1.91-1,7.84,7.84,0,0,0-2.43-.36,8,8,0,0,0-2.91.55,7.41,7.41,0,0,0-2.58,1.66,8.47,8.47,0,0,0-1.85,2.86,10.84,10.84,0,0,0-.7,4.09,7.28,7.28,0,0,0,.44,2.58,5.91,5.91,0,0,0,1.28,2.08,5.74,5.74,0,0,0,2.08,1.38,7.85,7.85,0,0,0,5.07.17,5.9,5.9,0,0,0,1.93-1,6.38,6.38,0,0,0,1.5-1.74,8.27,8.27,0,0,0,1-2.48H763.5a9,9,0,0,1-.34,1,4.62,4.62,0,0,1-.7,1.14,4,4,0,0,1-1.14,1,3.42,3.42,0,0,1-1.7.39,3.88,3.88,0,0,1-3-1.2,4.8,4.8,0,0,1-1.07-3.3,9.3,9.3,0,0,1,.34-2.5A7.12,7.12,0,0,1,756.84,315.9Z"/><path d="M779.82,322.64a4.62,4.62,0,0,1-.7,1.14,4,4,0,0,1-1.14,1,3.42,3.42,0,0,1-1.7.39,3.88,3.88,0,0,1-3-1.2,4.8,4.8,0,0,1-1.07-3.3,9.3,9.3,0,0,1,.34-2.5,7.12,7.12,0,0,1,1-2.22,5.36,5.36,0,0,1,1.65-1.6,4.4,4.4,0,0,1,2.35-.61,3.58,3.58,0,0,1,2.51.82,3.13,3.13,0,0,1,.87,2.39h2.62a5.36,5.36,0,0,0-.38-2.28,4.3,4.3,0,0,0-1.2-1.68,5.32,5.32,0,0,0-1.91-1,7.84,7.84,0,0,0-2.43-.36,8,8,0,0,0-2.91.55,7.41,7.41,0,0,0-2.58,1.66,8.47,8.47,0,0,0-1.85,2.86,10.84,10.84,0,0,0-.7,4.09,7.28,7.28,0,0,0,.44,2.58,5.91,5.91,0,0,0,1.28,2.08,5.74,5.74,0,0,0,2.08,1.38,7.85,7.85,0,0,0,5.07.17,5.9,5.9,0,0,0,1.93-1,6.38,6.38,0,0,0,1.5-1.74,8.27,8.27,0,0,0,.95-2.48h-2.63A9,9,0,0,1,779.82,322.64Z"/><polygon points="785.63 326.9 788.25 326.9 791.38 311.91 788.76 311.91 785.63 326.9"/><polygon points="805.36 307.48 802.73 307.48 801.11 310.48 802.88 310.48 805.36 307.48"/><path d="M793.53,320.71a7.52,7.52,0,0,0,.44,2.58,5.93,5.93,0,0,0,1.29,2.08,5.74,5.74,0,0,0,2.08,1.38,7.4,7.4,0,0,0,2.85.51,8.24,8.24,0,0,0,2.94-.55,7.06,7.06,0,0,0,2.54-1.67,8.36,8.36,0,0,0,1.79-2.84,11.47,11.47,0,0,0,.67-4.1,7.21,7.21,0,0,0-.47-2.64,6.19,6.19,0,0,0-1.33-2.07,5.62,5.62,0,0,0-2.07-1.36,7.22,7.22,0,0,0-2.68-.48,8,8,0,0,0-2.91.55,7.41,7.41,0,0,0-2.58,1.66,8.32,8.32,0,0,0-1.85,2.86A10.84,10.84,0,0,0,793.53,320.71Zm3-2.59a7.34,7.34,0,0,1,1-2.22,5.39,5.39,0,0,1,1.66-1.6,4.39,4.39,0,0,1,2.34-.61,3.72,3.72,0,0,1,3,1.2,5,5,0,0,1,1,3.3,9.56,9.56,0,0,1-.32,2.49,7.4,7.4,0,0,1-1,2.23,5.44,5.44,0,0,1-1.64,1.6,4.27,4.27,0,0,1-2.28.61,3.86,3.86,0,0,1-3-1.2,4.75,4.75,0,0,1-1.07-3.3A9.3,9.3,0,0,1,796.5,318.12Z"/><polygon points="820.97 323.1 820.92 323.1 816.33 311.91 813.45 311.91 810.34 326.9 812.97 326.9 815.23 315.77 815.27 315.77 819.9 326.9 822.77 326.9 825.88 311.91 823.25 311.91 820.97 323.1"/><path d="M698.52,337.11H693l-3.15,15h5.27a16.58,16.58,0,0,0,2.41-.15,7.38,7.38,0,0,0,1.77-.46,6,6,0,0,0,1.41-.79,13.75,13.75,0,0,0,1.3-1.12,6.3,6.3,0,0,0,1.05-1.37,10.39,10.39,0,0,0,.73-1.64,11,11,0,0,0,.45-1.68,9.62,9.62,0,0,0,.14-1.5,6.59,6.59,0,0,0-1.49-4.72A5.79,5.79,0,0,0,698.52,337.11Zm3.16,7.27a8,8,0,0,1-.33,1.37,11,11,0,0,1-.65,1.48,6.15,6.15,0,0,1-1,1.35,5.22,5.22,0,0,1-1.46,1,4.74,4.74,0,0,1-2,.39H693l2.24-10.71h3.28a3,3,0,0,1,2.44,1.07,4.76,4.76,0,0,1,.86,3A6.39,6.39,0,0,1,701.68,344.38Z"/><polygon points="705.03 352.1 716.01 352.1 716.48 349.83 708.08 349.83 708.98 345.44 716.73 345.44 717.17 343.3 709.44 343.3 710.26 339.38 718.6 339.38 719.06 337.11 708.14 337.11 705.03 352.1"/><path d="M760.09,337.11l-9,15h2.81l2.31-4h6l.6,4h2.67l-2.6-15Zm-2.75,9,3.61-6.39h0l.92,6.39Z"/><path d="M777.75,346.35a7.35,7.35,0,0,1-.66,1.9,3.84,3.84,0,0,1-.91,1.17,2.89,2.89,0,0,1-1.15.6,5.88,5.88,0,0,1-2.68,0,2.83,2.83,0,0,1-1-.45,2.06,2.06,0,0,1-.68-.83,2.71,2.71,0,0,1-.22-1.27,6.2,6.2,0,0,1,.06-.62c0-.2.06-.4.11-.6l1.93-9.17h-2.63L768,345.82c-.07.34-.12.67-.17,1a6.8,6.8,0,0,0-.08,1,4.33,4.33,0,0,0,.46,2.05,4.08,4.08,0,0,0,1.2,1.43,5.29,5.29,0,0,0,1.77.85,7.7,7.7,0,0,0,2.12.29,8.27,8.27,0,0,0,3.32-.58,5.69,5.69,0,0,0,3.17-3.39,16.49,16.49,0,0,0,.54-2l2-9.4h-2.62Z"/><polygon points="796.31 337.11 783.96 337.11 783.5 339.38 788.43 339.38 785.79 352.1 788.41 352.1 791.06 339.38 795.83 339.38 796.31 337.11"/><path d="M808.21,338.59a5.92,5.92,0,0,0-2.07-1.36,7.27,7.27,0,0,0-2.69-.48,8,8,0,0,0-2.91.55A7.3,7.3,0,0,0,798,339a8.32,8.32,0,0,0-1.85,2.85,10.83,10.83,0,0,0-.7,4.08,7.3,7.3,0,0,0,.44,2.59,5.74,5.74,0,0,0,3.36,3.46,7.43,7.43,0,0,0,2.85.51,8.12,8.12,0,0,0,3-.55,7.15,7.15,0,0,0,2.54-1.67,8.25,8.25,0,0,0,1.78-2.84,11.26,11.26,0,0,0,.67-4.1,7.3,7.3,0,0,0-.47-2.65A6.22,6.22,0,0,0,808.21,338.59Zm-1.16,7.3a7.19,7.19,0,0,1-1,2.22,5.55,5.55,0,0,1-1.64,1.6,4.26,4.26,0,0,1-2.28.6,3.88,3.88,0,0,1-3-1.19,4.8,4.8,0,0,1-1.07-3.3,9.3,9.3,0,0,1,.34-2.5,7.12,7.12,0,0,1,1-2.22,5.36,5.36,0,0,1,1.65-1.6,4.4,4.4,0,0,1,2.35-.61,3.71,3.71,0,0,1,3,1.2,4.92,4.92,0,0,1,1,3.3A9.76,9.76,0,0,1,807.05,345.89Z"/><path d="M823.16,337.65a4.71,4.71,0,0,0-1.57-.46c-.53-.05-1-.08-1.28-.08h-6.49l-3.1,15h2.66l1.28-6.17h3.13c.35,0,.7,0,1,0a2.83,2.83,0,0,1,.91.19,1.38,1.38,0,0,1,.64.51,1.8,1.8,0,0,1,.24,1,9.86,9.86,0,0,1-.13,1.63,11.24,11.24,0,0,0-.13,1.65,5.28,5.28,0,0,0,0,.58,2.46,2.46,0,0,0,.13.57h2.75a2,2,0,0,1-.22-.61,4.46,4.46,0,0,1,0-.63,8.09,8.09,0,0,1,.11-1.55,10.25,10.25,0,0,0,.12-1.56,3.93,3.93,0,0,0-.32-1.64,2.11,2.11,0,0,0-1.27-1.06V345a4.28,4.28,0,0,0,2.5-1.29,4,4,0,0,0,.9-2.78,3.36,3.36,0,0,0-1.88-3.28Zm-1.64,5.58a4.12,4.12,0,0,1-2.59.7h-3.85l1-4.68h3.68a6.45,6.45,0,0,1,1,.07,2.49,2.49,0,0,1,.86.29,1.48,1.48,0,0,1,.6.59,2,2,0,0,1,.22,1A2.45,2.45,0,0,1,821.52,343.23Z"/><circle cx="477.49" cy="317.02" r="4.07"/><path d="M852.75,161.52c-27.88-38.14-65-59.15-104.59-59.15-20.68,0-40.68,5.7-59.45,16.95a141.26,141.26,0,0,0-21.87,16.25L704.78,31.31A2.5,2.5,0,0,0,702.43,28h-49.7c-1.26,0-2.56,0-3.89,0l-1.25,0H544.1a2.5,2.5,0,0,0-.89,4.84c1.21.46,29.2,11.62,17.28,45.1L502.17,238.11c-1.37,3.5-11.46,28.36-34.11,28.36H427.82c3.29-3,6.87-6.17,10.59-9.46,29.91-26.49,70.86-62.77,93.19-119,9.06-22.83,9.17-59.27-8.14-84.76a56.86,56.86,0,0,0-20.7-18.81A58.81,58.81,0,0,0,475.19,28c-16.34,0-29.51,5.09-39.13,15.11A57,57,0,0,0,423.94,63h0V30.46a2.5,2.5,0,1,0-5,0V59.79A52.22,52.22,0,0,0,408.76,43.1c-6.68-7.24-15.3-11.91-25.73-14a2.48,2.48,0,0,0-.55-.15l-.75-.1h-.08A68.09,68.09,0,0,0,370.06,28H303.67l-.32,0-3.1,0H198.53a2.5,2.5,0,0,0-.89,4.84c.93.36,18.1,7.2,20,26H171.82a83.57,83.57,0,0,0-65.36-30.86,62.75,62.75,0,0,0-55.84,91.38L87.24,190.7,68.07,243.36a2.5,2.5,0,0,0,.65,2.7,2.5,2.5,0,0,0,2.74.43,355.45,355.45,0,0,0,35-18.36l0,.06A184.49,184.49,0,0,1,113.64,250H36.7a2.5,2.5,0,0,0-.85,4.85c1.07.39,25.86,10,12.07,48.5-.06.15-.11.31-.17.47L.15,434.56a2.51,2.51,0,0,0,.66,2.69,2.47,2.47,0,0,0,1.69.66,2.57,2.57,0,0,0,1-.22c4.49-2.06,8.8-4.16,13-6.28l.19-.1C122.09,377.75,131.24,306.12,120,255h11.87c4.3,0,7.23,1.29,9,3.94,3.88,5.86,1.55,17.47-1,25.46,0,0,0,0,0,.06l-6.94,19.08a2.34,2.34,0,0,0-.09.24l-31.31,86-.06.17c-13.09,35.66-50.39,42.93-50.76,43a2.49,2.49,0,0,0,.44,5h184a2.5,2.5,0,0,0,.12-5c-.07,0-7.18-.47-9.91-4.53-1.39-2.05-1.46-4.88-.24-8.38l41.19-113H303.5l-.17,128.32a2.49,2.49,0,0,0,.61,1.63,2.13,2.13,0,0,0,.3.3,2.55,2.55,0,0,0,.61.37l.23.09a1.56,1.56,0,0,0,.37.1,2.29,2.29,0,0,0,.64,0h7.67a2.49,2.49,0,0,0,2.47-2.15s0,0,0,0L364,305.45a63.62,63.62,0,0,0,29.51-14.62c14.31-12.93,21.57-32.63,21.57-58.56,0-15.68-3.87-28.15-10.11-38.57l14-38.17V302a15,15,0,0,0,0,2.75,2.5,2.5,0,0,0,2.48,2.21h.15a2.5,2.5,0,0,0,2.35-2.49v-2.42a19.33,19.33,0,0,1,5-11.31c6.61-7.36,19.32-11.25,36.77-11.25h3.56a367.75,367.75,0,0,0-37.08,25.23q-6.89,5.37-13,10.72l-.05-.08C386.56,343.61,370,371.64,370,398.87c0,29.67,13.76,37.53,25.29,38.9,17.64,2.1,44.09-9.85,72.16-32,7.27-5.65,14.65-12,22-18.93a313.24,313.24,0,0,0,45.93-54l-25.36,69.68c-8.67,23.82-25.56,30.46-25.72,30.52a2.5,2.5,0,0,0,.87,4.84h43.49a2.49,2.49,0,0,0,2.46-2.17,2.53,2.53,0,0,0-1.85-2.75c-.13,0-3.05-.86-5.05-4.7-2.2-4.22-3.56-12.69,2.4-29.08v0l33.46-94.26c5.48,11.65,10.77,23.41,15.94,34.91C614.52,425.3,653,502.43,747.76,504.28h0a2.34,2.34,0,0,0,.38,0h2.93a2.73,2.73,0,0,0,.5-.05h.07c2.71-.08,5.41-.28,8.09-.56v0c35.18-3.68,67.86-24.14,93-58.54,27.71-37.91,43-88.27,43-141.81h0v0C895.72,249.8,880.46,199.44,852.75,161.52ZM60.59,129.63c-9.25-18-8.61-44.17,1.48-61.77,20.14-35.11,47.57-34.59,52.34-34.54,19.78.18,38.48,11.09,50.81,25.47H104.61a2.5,2.5,0,0,0-.85,4.85c1.07.39,26,10,11.94,48.85l0,.12L89.57,184.29ZM87.93,232.82,96.61,209l7.55,14.72Q96.39,228.36,87.93,232.82Zm11-30.27L131.1,114.2s0,0,0,0l.87-2.42c.63-1.74,1.27-3.5,1.92-5.26,6.74-18.19,15.22-36.88,36.35-41.57.37.49.67,1,1.08,1.48,13.71,15.51,6.8,49.76,2.47,67.61-.2.83-.4,1.64-.59,2.39,0,.19-.1.38-.14.57-8.1,32.06-27,60.51-64.65,84.09ZM104,328.12c-.38,1-.77,2-1.16,3l-.16.42C86.53,373,68.53,398.18,20,424L63.2,305.35l.88-2.41c.54-1.49,1.08-3,1.64-4.5C73.53,277.19,83.54,255,113.14,255h1.71C119.57,281.3,111.81,307.59,104,328.12ZM118.81,250A187.23,187.23,0,0,0,111,226.12.61.61,0,0,0,111,226s0,0,0,0,0,0,0,0l-.2-.4c39-24.39,64.43-53.14,75.72-85.79A83,83,0,0,0,175.8,64a52.2,52.2,0,0,1,5.25-.25h36.78a48,48,0,0,1-3,14.34,2,2,0,0,0-.13.68,0,0,0,0,0,0,0L152.39,250Zm91.92,168.25,0,.07,0,.12c-5.24,14.21-17.72,14.48-18.26,14.49H124.74c-6.71,0-11.34-1.94-13.76-5.76-2.66-4.2-2.61-10.15-1.61-15.77.27-1.54.61-3.05,1-4.49L133.25,344c1-2.5,2.11-4.91,3.27-7.22,9-17.95,22.92-29.78,66-29.78h48.68ZM303.51,302H268.08l35.56-97.57Zm4.84,119.15L308.5,307h34.79c.51.05,2.14.18,4.59.18l1.84,0Zm43.4-119.58c-4.77.27-43.24.43-43.24.43l.19-138.66a2.35,2.35,0,0,0-2.05-2.47h-19.4a2.5,2.5,0,0,0-.56,4.94c.07,0,7.11,2.08,10.22,6.81,1.5,2.28.32,7.57.12,8.51L253,302H148.54l22-58.61,0,.06,8.67-23.8-8.64,23.74c7.26-18.85,22.92-29.81,66-29.81h37.24a2.5,2.5,0,0,0,0-5H183.18l52.7-144.79h47.27a2.5,2.5,0,0,0,0-5H238.59c9-15,23.89-25.31,61.66-25.84h43.08A55.45,55.45,0,0,0,325.79,43c-12,10.31-18,25.61-18,45.46,0,34.75,25.26,51.95,49.7,68.58,12.94,8.81,26.1,17.77,36,29.47Zm48.12-44.33c-12.71,37.35-27.92,41-33.8,42.5L402.63,200C407.27,209,407.72,234.17,399.87,257.24Zm48.21-143H401.27a2.5,2.5,0,0,0-.84,4.85c.63.23,15.4,5.67,11.27,17.28a.83.83,0,0,0-.06.21.19.19,0,0,0,0,.07l-16.13,44.44c-14-20.37-74.56-43.63-74.56-92.61,0-18.32,5.47-32.34,16.24-41.66,18.36-15.88,38.75-13.52,43.81-13h0c9.86,1.74,17.92,6,24.06,12.61,10.9,11.8,13.4,28.75,13.87,38.42V89.6c0,1.53,0,2.56,0,3v.05a.43.43,0,0,0,0,0,1.94,1.94,0,0,0,0,.24s0,.06,0,.09l.06.28s0,.11.05.16a.14.14,0,0,0,0,.06l.08.18s0,0,0,0a1.09,1.09,0,0,0,.08.15s0,0,0,0a3,3,0,0,0,.2.29l0,.06.07.08a2.77,2.77,0,0,0,.66.51.93.93,0,0,0,.1.05h0l.25.1.12,0,.08,0,.25,0h.43a3,3,0,0,0,.31,0h.05l.19,0,.08,0,.16,0a3,3,0,0,0,.4-.2l.12-.06a1.45,1.45,0,0,0,.23-.19l.12-.09a0,0,0,0,1,0,0l.08-.08.12-.13.06-.1a1.43,1.43,0,0,0,.14-.2l0-.06.09-.17a0,0,0,0,1,0,0l.05-.12s0,0,0,0a2.22,2.22,0,0,0,.12-.39s0,0,0-.06l0-.24a1.34,1.34,0,0,0,0-.2c.05-.63.15-2.5.12-5.22.55-9,3.23-28,15.63-40.9,8.64-9,42.64-21.75,68.62,11.57,17.69,22.69,16,59,7.64,80.1-21.89,55.18-51.33,88.93-80.85,115.09-3.93,3.47-7.7,6.81-11.16,10V140c0-19.7,23.24-20.78,24.23-20.81a2.5,2.5,0,0,0-.09-5ZM558.49,281.79a2.37,2.37,0,0,0-.41-.57.49.49,0,0,0-.13-.12,1.37,1.37,0,0,0-.23-.19,1.49,1.49,0,0,0-.3-.18.34.34,0,0,0-.12-.06,1.72,1.72,0,0,0-.29-.11,1.31,1.31,0,0,0-.38-.09,2.19,2.19,0,0,0-.36,0,1.73,1.73,0,0,0-.32,0,1.65,1.65,0,0,0-.43.09,2,2,0,0,0-.34.14h0a.42.42,0,0,0-.12.08.59.59,0,0,0-.17.1,1.93,1.93,0,0,0-.35.29l-.15.17a2.5,2.5,0,0,0-.35.56.35.35,0,0,0-.06.14s0,0,0,0l-8.38,23c-11.85,25.07-33.14,53.31-59.46,78.13q-6.94,6.56-13.84,12.31l-.06-.09c-28.54,23.88-51.88,32.57-69.8,30.45q-10.39-1.25-15.63-9.76c-3.49-5.67-5.25-13.75-5.25-24.18,0-19.48,8.55-37.12,21-52.56,23.52-27.21,57.33-48.77,76.81-59.9H612.64a2.49,2.49,0,0,0,2.35-1.64l2.86-7.8a1.15,1.15,0,0,0,.12-.25l2.24-6.16,7.91-21.75a2.5,2.5,0,0,0-4.65-1.83c-.11.26-11.46,26.38-36.78,26.38H497.17l9.41-25.85a.5.5,0,0,0,.05-.13c14.37-34.91,44.85-87.94,76.79-87.94,16.9,0,42.71,23.51,57.5,78.69,22.56,84.15-7.92,100.05-34.34,95.21C582.26,322,567.25,298.61,558.49,281.79ZM766.86,497.62a104.19,104.19,0,0,1-17.79,1.68h-.17c-92.35-1.24-128.17-80.89-166.07-165.18-3.56-7.92-7.18-16-10.88-24,11.93,12.88,24,18.66,33.33,21.18,13.84,3.74,28.09,1.89,39.09-5.06,22.06-13.94,20.86-58.44,9.88-96.37-9.49-32.78-27.73-65.79-50.26-78.06h18.74a2.5,2.5,0,0,0,0-5H550.51l27-74.16c8.94-22.18,19.89-38.91,70.09-39.68h5.3c13.66.35,22.59,3.31,26.47,8.79,2.86,4,3,9.7.39,16.84,0,0,0,0,0,0v0a.09.09,0,0,0,0,0L640.9,165.3a2.61,2.61,0,0,0-.33.92l-1,2.83a2.5,2.5,0,0,0,1.5,3.2,2.54,2.54,0,0,0,.85.15,2.51,2.51,0,0,0,2.35-1.64l1.16-3.19A174.41,174.41,0,0,1,662.19,147l0,0a2.32,2.32,0,0,0,.61-.64c24.48-25.3,54-38.94,85.32-38.94a106.06,106.06,0,0,1,11.59.65v0c72.45,8.18,122.83,92.66,122.83,195.32C882.58,402.65,835.52,484.91,766.86,497.62Z"/><path d="M179.15,219.65l-8.64,23.74,0,.06Z"/></g></g></svg>