<svg id="Capa_1" data-name="Capa 1" xmlns="http://www.w3.org/2000/svg" viewBox="0 0 1214.87 684"><path d="M284.27,638.81H163.59c-1.33,0-2.67.08-4,0s-4.29-2.89-4-3.87a4.63,4.63,0,0,1,3.32-3.13c3.82-1.17,7.54-2.67,11.33-3.93,8.75-2.89,17.13-6.47,24.24-12.51,4.91-1.91,8.27-6,12-9.35a63.76,63.76,0,0,0,10.9-12.81,109.75,109.75,0,0,0,8.33-15,75.77,75.77,0,0,0,4-10.83c1.25-4.56,3.51-8.84,5.15-13.31,2.37-6.49,4.22-13.18,7.42-19.35-.22-3.63,2.16-6.43,3.12-9.69.91-3.07,2.88-5.89,3.46-9,.82-4.35,2.92-8.11,4.43-12.15,1.45-3.88,2.66-7.86,4-11.79.61-1.74,1.36-3.43,2-5.16,1.35-3.76,2.62-7.56,4-11.3s3.07-7.38,4.32-11.17A95.12,95.12,0,0,1,271.25,454c2.66-5.73,4.09-11.91,6.55-17.73,1.67-4,3.62-8,3.44-12.53,1.8-1.5.53-3.9,1.82-5.76,1.09-1.57-.83-4.23,1.17-6,.39-6.48-.5-12.71-4.29-18.15-1.61-2.3-4.66-2.93-7.1-3.12-6.11-.45-12.29-.14-18.44-.15-1.32,0-1.25,1-1.05,1.69a64,64,0,0,1,2.13,12.63c.19,2.49.78,5,.88,7.57.09,2.37.76,4.71.91,7.07.16,2.65-.48,5.45.17,7.94a20.92,20.92,0,0,1,.75,9.07c-1,5.35-.4,10.75-1,16s-1.13,10.47-2,15.61a76.7,76.7,0,0,1-2.2,10c-1,3.23-1.89,6.52-2.84,9.79-1.09,3.69-2.44,7.29-3.74,10.91s-3.32,6.93-4.12,10.78c-.36,1.72-1.77,3.23-2.72,4.83a20.66,20.66,0,0,0-2.12,3.61c-1.38,4.06-3.91,7.4-6.33,10.84-.34.49-.42,1.16-.73,1.69-2.63,4.47-5.77,8.6-8.78,12.82-9.27,13-20.78,24-32.19,35-4.45,4.3-9.62,7.92-14.41,11.87-3.59,3-7.55,5.43-11.05,8.54-3.22,2.87-7.28,4.78-10.93,7.17-2.24,1.47-4.39,3.05-6.59,4.57-.9.61-1.82,1.2-2.76,1.76-3.21,1.89-6.52,3.62-9.6,5.69s-6.66,3.26-9.76,5.46c-3.46,2.46-7.64,3.92-11.53,5.76-3.06,1.46-5.85,3.41-9.07,4.61-3,1.14-5.82,2.8-8.72,4.21-2,1-4.13-.15-4.21-2.14-.14-3.75.13-4.12,2-8.66,2.18-5.42,4-11,6-16.45,1.42-3.9,3-7.74,4.23-11.7,2.27-7.53,5.17-14.85,8-22.13,2.88-7.44,4.79-15.28,8.64-22.34.35-4.08,2.78-7.5,3.62-11.48,1-4.49,3.6-8.44,4.92-12.91,1.66-5.58,4.14-10.92,6.09-16.4,2.27-6.38,5.23-12.56,7-19,2.3-8.37,6.56-16,8.43-24.46.32-1.46,1.33-2.76,1.94-4.17,2.25-5.24,2.8-11.08,5.72-16.08,0-3.82,1.82-7.26,2.49-11,1-5.41.61-10.73.72-16.08.17-8.52-3.26-15.76-8.24-22.51-1.63-2.21-4-3.59-5.56-5.9-1.35-2-4.25-3-6.66-4.05-2.2-.92-3.58-2-3.45-4.55a2.37,2.37,0,0,1,2.4-2.47,33.81,33.81,0,0,1,3.49,0h96.74c1.33,0,2.66,0,4,0,1.6-.06.42-.67.38-1.32-.26-3.8-2.35-7.21-2.25-11.06-2.56-3.45-2.87-7.78-4.53-11.58a11.29,11.29,0,0,1-1.35-3.41c-.19-2.28-1.84-1.89-2.72-1.29-3.6,2.47-7.61,4.14-11.37,6.3-4.15,2.38-7.9,5.41-12.66,6.78-2.16.62-3.92,2.51-6,3.6-3.53,1.86-7.53,2.71-10.9,5a23,23,0,0,1-4.15,2c-1.25.5-2.32,1.86-3.9,0a4.36,4.36,0,0,1-.91-4.83c.74-2,1.38-4.08,2.13-6.09,2-5.33,4-10.63,6-16,2.37-6.49,3.94-13.29,7.42-19.36,1.17-8.69,6.48-16,8-24.59,3-3.56,1.41-6.73-.63-10.06a72.5,72.5,0,0,1-5.95-11c-2.9-7.34-7.13-14-10.53-21.06-3-6.23-6.32-12.36-9.68-18.45-1.77-3.21-3.44-6.54-5.12-9.82s-3.34-6.59-5-9.9-3.06-6.38-4.69-9.52-3.56-5.84-4.85-9c-1.89-4.54-4.84-8.61-5.76-13.58-.45-2.41-1.45-4.72-2.05-7.11s-1.13-4.88-1.71-7.29c-1.78-7.5-.9-15.06-.72-22.54a46.22,46.22,0,0,1,3-14.65c1.17-3.16,1.41-6.62,3.35-9.58a43.85,43.85,0,0,0,4.38-8.64c1.49-3.93,4.46-6.8,6.71-10.16a49,49,0,0,1,7.71-8.76c7.23-6.6,14.81-12.77,24.16-16.26,3.16-1.19,6-3.05,9.35-3.92s6.5-2,9.77-2.85a51.26,51.26,0,0,1,10.53-1.07c4.64-.16,9.31-.14,14,0,7.13.2,14,1.87,20.91,3.6,4.23,1,8.34,2.42,12.43,3.77a81.72,81.72,0,0,1,13,5.93,111,111,0,0,1,14.91,9.79A115.38,115.38,0,0,1,317.16,117c1.77,1.86,3.3,3.94,5,5.91a3.93,3.93,0,0,0,3.36,1.57q28.92-.14,57.84,0c1.29,0,1.6-.38,1.69-1.66.27-3.79-1.31-7.1-2.68-10.38a39.2,39.2,0,0,0-16.25-18.82c-2.49-1.51-4.48-3.86-7.69-4.34-1.59-.23-2.7-2.84-2.35-3.91a5.33,5.33,0,0,1,4.16-2.78c.83,0,1.66,0,2.49,0H599.56c5.17,0,17.28,2.79,22.35,5S631.8,92,636.1,95.47a75.92,75.92,0,0,1,9.37,8.43,75.64,75.64,0,0,1,11.78,18.61c.13.28.29.55.43.82.19-.38.54-.75.54-1.13q0-16.2,0-32.4c0-1.17,0-2.33,0-3.49a4.06,4.06,0,0,1,4.64-3.77c1.39.21,2.37.91,2.33,2.52,0,1,0,2,0,3q0,19.19,0,38.38a9.38,9.38,0,0,0,.37,1.84,8.61,8.61,0,0,0,1-1.84c1.33-4.84,4.8-8.59,6.67-13.19a16.22,16.22,0,0,1,4.35-5.63c1.86-1.66,3-3.9,5.11-5.37s3.39-3.72,5.39-5.16c4.15-3,8-6.52,13.27-7.67a26.79,26.79,0,0,0,5.11-2.06c4.78-2.21,9.8-2.89,14.85-4,7.37-1.58,14.72-.34,22.05-.86,2.27-.16,4.19,1.49,6.58,1.06s4.17,1.21,6.26,1.63c6,1.2,11.38,3.88,16.81,6.38A40.07,40.07,0,0,1,784,99c2.33,2.24,5,4.08,7.28,6.41,3.28,3.44,6.6,6.88,8.66,11.34.91,2,2.7,3.51,3.9,5.37,3,4.68,4.6,10.07,7.25,14.94,1.51,2.78,1.67,5.94,2.73,8.84,2,5.59,3,11.43,4.2,17.24a28.43,28.43,0,0,1,.71,8.1c-.37,4.13,1,8,1.1,12.05.09,7-1.73,14-1,21-1.59,4.89-1.82,10.07-3.53,15-1.2,3.48-2,7.11-3.42,10.56-.93,2.27-1.33,4.78-2.38,7-4.37,9.17-8.8,18.31-13.39,27.36a257.67,257.67,0,0,1-16.9,27.89c-1.84,2.72-3.66,5.43-5.37,8.24a61.44,61.44,0,0,1-6.65,8.7c-3.84,4.3-7.07,9-10.6,13.56-2.08,2.67-4.5,5.09-6.73,7.66-10.92,12.64-22.84,24.36-34.94,35.84-4.27,4-8.45,8.23-12.9,12.07-5.91,5.1-11.7,10.33-17.58,15.43-4.13,3.59-8,7.45-12.46,10.71-.26.2-.3.69-.45,1a5,5,0,0,0,.92.18H688.9c12.46,0,24.94-.24,37.4.09a32.36,32.36,0,0,0,17.58-4.57c5.88-3.44,11.43-7.3,15.52-13.15,2.52-3.61,5.16-7.19,7.55-10.89a36.07,36.07,0,0,0,4.84-9.92c1-3.59,2.76-6.85,3.38-10.64.58-3.48,2.77-6.76,3.9-10.3,3-9.37,6.95-18.4,10-27.76,2.4-7.26,5-14.55,7.91-21.63,1.55-3.74,2.43-7.63,3.89-11.35s3.86-7.15,4.77-11c1.93-8.16,5.71-15.62,8.19-23.55,1.23-4,2.93-7.76,4.26-11.69,2.5-7.44,5.54-14.68,7.77-22.22,1-3.49,2.73-6.83,4-10.3,1.9-5.18,3.8-10.38,5.78-15.54s3.34-10.3,5.29-15.26c2.18-5.57,3.8-11.37,6.4-16.79a58.49,58.49,0,0,0,2.35-6.5c.7-2,1.22-4.15,2-6.14.89-2.16.93-4.51,1.77-6.73a30.5,30.5,0,0,0,1.08-6,26.62,26.62,0,0,0,0-8.45c-1.66-9.35-4.62-18.06-11.57-25.15-4.11-4.19-9-7.16-13.68-10.45-.72-.5-1.95-.27-2.64-.79-1.12-.86-2.73-1.94-1.88-3.6.68-1.34,1.63-2.9,3.66-2.77.82.06,1.66,0,2.49,0h210.44c4.69,0,6.24,2.41,4.29,6.91a160.13,160.13,0,0,0-6.63,18.2c-1,3.49-2.8,6.8-4.06,10.28-.89,2.42-1.42,5-2.65,7.38a66.46,66.46,0,0,0-3.11,7.67c-.89,2.47-1,5.25-2.12,7.59-2,4.2-3.14,8.69-5,12.89s-2.13,8.74-4.9,12.43c-2.12,10.32-7.87,19.43-10,29.77-2.44,4.15-3.82,8.71-5.3,13.26-1.58,4.81-3.5,9.51-5.24,14.27a8.13,8.13,0,0,0-.41,1.82c0,.28.1.77.28.84.41.14,1.07.29,1.31.08,2.14-2,4.27-3.9,6.6-5.69a201.87,201.87,0,0,1,18.56-13.06c2.64-1.6,5.4-3,8.11-4.48,2.17-1.18,4.4-2.26,6.51-3.55,4.38-2.66,9.44-3.73,14-6,5.6-2.79,11.86-3.37,17.63-5.59a31.11,31.11,0,0,1,5.42-1.34c3.39-.66,6.92-.55,10.15-2a2.2,2.2,0,0,1,1,0c6.57.77,13-1.14,19.54-1.11,3.28,0,6.3,1.3,9.56,1.14s6.45-.6,9.45.09c6.65,1.53,13.5,2.06,20,4.6,3.21,1.26,7,1.49,10.36,2.69a176.87,176.87,0,0,1,22.85,9.86,196.85,196.85,0,0,1,18.63,11.6c1.81,1.23,3.74,2.27,5.5,3.56a29,29,0,0,1,5.51,4.63c1.39,1.7,4,2.09,4.61,4.45,4.63,2.43,7.47,6.82,11.19,10.25a106.5,106.5,0,0,1,10.53,10.61c3.51,4.31,7.21,8.47,10.46,13,3.46,4.89,7,9.77,10.34,14.73,2.68,4,5.55,7.86,7.54,12.3a44.2,44.2,0,0,0,3.48,5.54,14,14,0,0,1,1.72,2.77c1.32,4,3.68,7.45,5.44,11.21s4,7.67,5.44,11.7,4,7.69,4.6,12.08c.24,1.61,1.23,3.13,1.93,4.66,2.83,6.19,4.38,12.82,6.44,19.26,1.06,3.34,2.31,6.73,2.68,10.41.46,4.43,1.9,8.79,3.17,13.1a76.44,76.44,0,0,1,2.69,12.85c.2,1.7.76,3.37.94,5.07s-.31,3.58,1,5.07c-.72,3.62,1.16,7,1.07,10.56a38.24,38.24,0,0,0,.93,6.56c.34,2.19-.82,4.58,1,6.59.25.29.09,1,0,1.47-.71,5.74,1.23,11.31,1,17s0,11.3,0,16.95c0,4.15.12,8.31,0,12.46-.1,2.53-.75,5-.92,7.57s.54,5.16-.18,7.42c-.88,2.75-.63,5.41-.88,8.11-.18,1.87-.65,3.71-1,5.57-.29,1.7.74,3.61-1,5.12-.33.3,0,1.29-.06,1.94-.31,2.86-.81,5.7-.94,8.57s-1.77,5.24-1,8.06c-2.15,6-2.39,12.5-5,18.37-.93,9.53-4.79,18.25-7.45,27.31-2.12,7.27-5.56,14-8,21.11-1.37,4-4,7.29-4.82,11.49-.33,1.72-1.78,3.23-2.72,4.83s-2.48,3.14-2.7,4.83c-.5,3.82-3.25,6.34-4.81,9.5-2.41,4.85-5.56,9.34-8.38,14a25.48,25.48,0,0,1-2.12,3.59c-4.69,5.43-8.54,11.49-12.86,17.18-7.61,10-16.71,18.5-25.64,27.15a145.7,145.7,0,0,1-23,17.91c-2.09,1.35-4.16,2.74-6.33,4a152.84,152.84,0,0,1-18.56,9.37c-4.11,1.64-8.09,3.85-12.35,5-5.52,1.54-11,3.22-16.54,4.69a81.53,81.53,0,0,1-24.24,2.84c-2.9-.11-5.59,1.66-8.56,1-6.79-1.49-13.76-.28-20.51-1.18-6.47-.86-13.24-.76-19.32-3.78-5.53.49-10.23-3.09-15.71-3.12-1.72,0-3.41-1.32-5.16-1.87-5.37-1.68-26.33-10.33-30-13.06-4.78-3.58-10.3-5.91-15-9.69-3.94-3.17-8.07-6.16-12.13-9.2a165,165,0,0,1-21.61-19.89,82.93,82.93,0,0,1-9-10.68c-1.77-2.68-4.25-4.88-6.27-7.4-6.61-8.24-13.1-16.58-18.38-25.77-.86-1.5-2-2.81-3-4.27-3.5-5.5-6.83-11.09-10-16.76-4.26-7.53-8.22-15.23-12.44-22.76-3.86-6.87-7.3-13.93-10.83-21-1-1.91-1.64-4-2.63-5.88-2.14-4.09-4.11-8.26-6-12.48s-3.86-8.38-6-12.47c-4.24-8.21-7.3-16.93-11.39-25.21-1.89-3.84-4-7.68-5.46-11.68-2.74-7.35-6.95-14.05-9.22-21.62-.91-3-2.93-5.75-4.49-8.59-.57-1-1.23-.7-1.75.08a3.93,3.93,0,0,0-.57,1.25c-1.26,5.59-4.8,10.46-5.08,16.34-4.65,7.74-5.85,16.81-9.71,24.9-1.74,3.67-2.58,7.88-4,11.8-1.35,3.76-2.83,7.48-4.09,11.26s-2.42,7.27-3.89,10.86a76.19,76.19,0,0,0-3.79,11.4c-1.25,5.39-4,10.3-5.66,15.6-3.38,10.7-7.86,21-10.89,31.88a39.7,39.7,0,0,0-1.84,8.72c-.2,3.69-1.46,7.32-.91,11.05.79,5.33,1.55,10.74,6.31,14.31a33.48,33.48,0,0,0,3.59,2.16c2,1.11,2.42,2,2,3.83a4.9,4.9,0,0,1-3.29,3.14c-.82.08-1.66,0-2.49,0-17.79,0-35.57,0-53.36,0a12,12,0,0,1-5.06-1.06c-2.35-1-2.33-5,0-5.94a39.34,39.34,0,0,0,10-6,23.16,23.16,0,0,0,2.69-1.91c3.89-4.19,8.28-7.88,11.77-12.52a63.66,63.66,0,0,0,6.76-11.2c4.33-9.17,7.6-18.79,11-28.33,1.14-3.18,1.83-6.58,3.34-9.57,1.91-3.74,2.54-7.89,4.4-11.65s2.83-7.79,4.24-11.7,2.92-7.76,4.31-11.67c2.58-7.24,5.1-14.51,7.66-21.75.62-1.74,1.34-3.44,2-5.17.08-.24-.14-.59-.22-.89a4.79,4.79,0,0,0-.75.66c-2.93,4.1-5.75,8.28-8.79,12.3-2.87,3.79-5.79,7.51-8.51,11.42-2,2.92-4.78,5.3-6.95,8.12-3.81,5-8.73,8.92-12.65,13.72-7.66,9.38-16.65,17.41-25.23,25.84-3.23,3.17-6.67,6.23-10.07,9.26-4.33,3.87-8.53,8-13.33,11.19-5.66,3.77-10.68,8.33-16.39,12-3.8,2.47-7.4,5.4-11.3,7.74-6.25,3.73-12,8.2-18.78,11.2-3.48,1.56-6.87,3.45-10.36,5.1a146.28,146.28,0,0,1-22.21,7.82A104.69,104.69,0,0,1,638.63,638a31.54,31.54,0,0,1-7.59.75c-5.45-.51-10.94-1.09-15.79-4-2.8-1.66-6-2.56-8.45-5a41.68,41.68,0,0,1-11.36-19.24c-.91-3.32-1.5-6.75-2.24-10.09-.94-4.25-.59-8.4-.75-12.59a86.19,86.19,0,0,1,.06-12.45,79.27,79.27,0,0,1,3.12-15.13c.23-.73.55-1.44.77-2.17.86-2.8,1.62-5.62,2.56-8.4,1.2-3.55,3.52-6.53,4.42-10.15s3.24-6.33,5-9.36a153.74,153.74,0,0,1,11.11-16.86c3.1-3.92,6.36-7.68,9.5-11.54,7.33-9,16.17-16.47,24.06-24.9,4-1.93,6.29-5.88,10-8.2,3-1.85,5.29-4.78,8.14-6.91,6.08-4.54,11.61-9.82,18.33-13.49,1.52-.83,2.18-2.89,4.2-3.12,1.69-2.78,5.09-3.17,7.32-5.24a19.09,19.09,0,0,1,7.54-4.63c3.56-4.25,9.07-5.59,13.27-8.9.74-.59,1.56-1.08,2.28-1.69a3.54,3.54,0,0,0,.62-1,2.94,2.94,0,0,0-.88-.26c-4.43.17-8.9-.52-13.28.85a13.5,13.5,0,0,1-3.44.14c-7.45.23-14.49,2.34-21.35,5A35.76,35.76,0,0,0,672,439.19a24,24,0,0,0-5.84,11.56,25.81,25.81,0,0,0-.88,6.58,3.06,3.06,0,0,1-1,2.6c-1.79,1.77-3.75,1.51-5-.88a8.89,8.89,0,0,1-1-2.58,25.23,25.23,0,0,1,0-3.48V263.07a18.8,18.8,0,0,0,0-2.49,21.71,21.71,0,0,0-.61-2.47,9.38,9.38,0,0,0-1.32,2.44c-.66,3.51-2.28,6.72-3.14,10.18-.81,3.24-2.85,6.15-3.8,9.37-1,3.41-2,6.89-3.26,10.13-1.73,4.43-3.62,8.79-5.12,13.33a7.9,7.9,0,0,0,.15,5.85c1.33,3.65,3.52,6.82,4.86,10.46a105.69,105.69,0,0,1,4.19,13.19c.91,4,2.64,7.87,2.09,12.12,1.94,5.07.7,10.35,1,15.54a50.66,50.66,0,0,1-.06,10.45c-.89,5.59-1,11.27-2.6,16.82A72.49,72.49,0,0,0,648.38,398c-.39,2.85-2.19,5.21-2.21,8.09-3.65,6.63-5.86,14-10.87,19.93-.9,3.36-4.44,4.55-6.08,7.43-1.49,2.61-4.06,4.39-6.51,6.31-3.26,2.55-6.31,5.48-9.9,7.54-5.73,3.28-11.42,6.67-18.07,8.18-3.09.7-6.08,2.2-9.27,2.82-2,.39-2.57,2.33-2.83,3.49-1.19,5.31-3.65,10.16-5.32,15.28-1.57,4.79-3.53,9.49-5.37,14.22-2,5.15-3.87,10.37-5.65,15.6-1.89,5.53-4.32,10.86-6.23,16.36-1.2,3.47-2.12,7.1-3.6,10.48-3.22,7.32-5,15.17-8.45,22.42-1.58,3.31-2.07,7.12-3.53,10.5-3.19,7.34-4.93,15.2-8.47,22.42-1.35,2.73-1.86,5.86-2.91,8.76-1.57,4.33-3.52,8.54-4.86,12.93-2.53,8.25-6.92,15.81-8.69,24.33-.54,2.56-3.16,3.24-5.24,3.57a41.93,41.93,0,0,1-8.46.07c-1.81-.08-4-2.39-4.18-4.21-.12-1.32,0-2.65,0-4V465.09c0-3.72,0-3.73-3.54-3.73H464.71c-2.66,0-5.32,0-8,0-1.94.05-3.88.24-5.82.37-.16,1.93-1.61,3.53-1.93,5.14-.84,4.33-3.22,8-4.27,12.25s-3,8.05-4.36,12.13c-3,9.05-6.4,18-9.74,26.89-2.8,7.45-4.95,15.19-8.54,22.38-1.3,2.58-1.57,5.65-2.58,8.39-1.64,4.47-3.84,8.76-5.17,13.3-1.86,6.38-4.91,12.3-6.75,18.65-2.19,7.55-5.69,14.62-7.79,22.22-1,3.62-2.93,7.07-4.26,10.68-1.23,3.37-.25,6.83-.58,10.22a21.9,21.9,0,0,0,5.21,4.94c2.78,1.68,5.86,1.94,8.79,2.89.59.19,1.45,0,1.79.43.84.91,2.57,1.5,2.1,3a5,5,0,0,1-3.42,3.42,15.82,15.82,0,0,1-4,.09ZM911.23,244h18c2.32,0,4.65-.07,7,0,1.61.07,2.35,1.13,2.33,3s-.75,2.82-2.41,2.94c-1,.08-2,0-3,0-7,0-14,0-20.94,0a6.76,6.76,0,0,0-1.38.28c.34.47.57,1.11,1,1.38a57.93,57.93,0,0,1,11.14,8.07c1.76,1.72,4.3,2.63,5.21,5.21,4.75,2.05,6.13,7.44,10.13,10.24.58,2.41,3,3.36,4.18,5.26,5.81,9.52,12.43,18.58,17,28.85a17,17,0,0,0,.72,1.7c1,1.74,2.69,3.34,3,5.19.65,3.44,2.5,6.35,3.82,9.41,1.84,4.26,3,8.74,4.86,12.95s2.91,8.77,4.61,13c1.22,3.06,1.51,6.3,2.62,9.38a123.54,123.54,0,0,1,4.11,15.72c.85,4,1.39,8.06,2.11,12.1.84,4.68,1.13,9.43,1.93,14.14.87,5.09.84,10.34,1.1,15.52.13,2.65-.19,5.33.06,8,.55,5.59-1.27,11-1,16.54a2.23,2.23,0,0,1,0,1c-1.33,2.74-1.42,5.75-2,8.66-.37,2-1.07,3.88-1.53,5.84-1.14,4.85-3.53,9.19-5.69,13.6a37,37,0,0,1-12.48,14c-5,3.4-10.34,6.8-16.84,7.47-2.38.24-4.73,1.62-7.24,1.65-2.74,0-5.21,1.48-8.07,1.1-4.15-.55-8.38.44-12.58-.95-2.82-.94-6-.67-9-1.29a48.52,48.52,0,0,1-7.46-2.44c-2.57-1-5-2.29-7.59-3.35-3.63-1.5-6.76-3.8-10.08-5.83-5.34-3.27-10-7.3-14.75-11.25-1.14-.95-2.11-2.12-3.2-3.14a2.79,2.79,0,0,0-1-.37c-.05.31-.24.68-.13.92,1.45,3.23,2.88,6.46,4.43,9.63,1.09,2.22,2.9,4.24,3.38,6.55.73,3.48,2.81,6.18,4.13,9.29s2.57,6.58,4,9.8q5.79,12.81,11.73,25.54,4.56,9.84,9.2,19.63c2,4.17,3.94,8.34,6,12.47,1.09,2.22,2.56,4.26,3.45,6.55,1.19,3,3,5.77,4.38,8.66,4.33,9.07,9.48,17.67,14.16,26.52A142.81,142.81,0,0,0,940.3,616c5.26,7.82,10.26,15.82,16,23.37q7.54,10,15.66,19.39c1,1.13,2.37,2,3.11,3.21,2.93,4.9,7.23,8.6,11.45,12.1,4.78,4,9,8.67,14.49,11.83,1.91,1.1,3.46,2.84,5.27,4.16s3.88,2.16,5.43,3.65c2.33,2.26,5.54,2.9,8,4.84s5.35,3,8.2,4.29c3.67,1.59,6.94,4.27,10.7,5.44,8,2.49,15.44,6.53,23.91,7.31,7.16,3,14.88,3.51,22.39,4.88,3.38.62,7,0,10.45.14s6.7.79,10.07.93c6.69.26,13.29-1.38,20-1.14,2,.07,4.29-.69,6.42-1.16,4.7-1,9.23-2.68,13.93-3.73a52,52,0,0,0,12.13-4.39c1.65-.83,3.22-2,5-2.44a41.15,41.15,0,0,0,11.68-5.47c5.67-3.63,11.42-7.21,16.86-11.28,5-3.75,9.73-7.83,14.4-11.93a127.74,127.74,0,0,0,13.6-14.19c4.33-5.17,8.48-10.45,12.61-15.75,3.39-4.36,5.44-9.65,9.49-13.53,1.88-6,6.4-10.54,8.56-16.4,1-2.86,3.37-5.25,4.53-8.09,1.68-4.14,3.56-8.17,5.6-12.13a4.69,4.69,0,0,0,.45-.81c2.48-8.26,6.68-15.92,8.67-24.32,1.57-6.64,5.49-12.64,5.34-19.75,0-.39.56-.76.69-1.19,1.59-5.18,2.61-10.51,4.18-15.71.81-2.7.07-6,1.31-8.42,1.51-2.92-.51-6.23,1.76-8.76,0-4.48,1.05-8.78,1.91-13.15.52-2.63.19-5.35.94-8.08.7-2.54-.21-5.46,1.14-8-.7-6.73,1.07-13.33,1-20-.07-9.64.06-19.28-.06-28.92,0-3.52.39-7-.81-10.6-.79-2.39,0-5.27-.18-7.92s-.7-5.37-1-8.07c-.39-4.17-.3-8.44-1.17-12.51-.44-2.05-.24-4.26-1-6-.87-2.09-.33-4.21-1-6.09-.91-2.7-.23-5.57-1-8.05-1.31-4-1.87-8.22-2.71-12.3-1.26-6.11-3.58-11.92-4.47-18.15a50.22,50.22,0,0,0-3.72-11.88c-1.88-4.57-1.85-9.79-4.92-13.92.14-2.88-2.63-4.74-2.85-7.24-.28-3.13-1.68-5.72-2.93-8.3-2.73-5.69-5-11.57-8.1-17.1-4.86-8.66-9.53-17.39-15-25.7a214.1,214.1,0,0,0-22.69-29,168.7,168.7,0,0,0-23.34-20.57,142.18,142.18,0,0,0-14.83-10.06c-9.26-5.14-18.83-9.83-29.11-12.74-4.33-1.22-8.73-2.17-13.06-3.39-2.33-.65-4.72-.75-7-1.16-1.31-.24-2.69-.65-4.11-.83s-3-.88-4.57-.92c-4.82-.13-9.65-.17-14.46,0s-9.34-.13-14.09.75c-4.17.77-8.41,1.46-12.62,2.08-5,.73-9.66,2.51-14.51,3.65a55.37,55.37,0,0,0-12.12,4.38c-4,2-8.2,3.44-12.16,5.59-5,2.72-10.16,5.26-14.95,8.43a223.86,223.86,0,0,0-20.58,15.3c-1.26,1.06-2.36,2.33-3.54,3.5l-3.87,3.88c-1.18,1.18-2.19,2.62-3.58,3.45s-2.24,2.41-3.41,3.55a136.21,136.21,0,0,0-13.75,15.63c-3.77,5-8.44,9.4-10,15.83-.32,1.36-2.9,2.52-4,2.12-1.27-.46-3.42-3-2.85-3.6,1.39-1.4.42-3.17,1.16-4.55A87.7,87.7,0,0,0,965,253.87c1.34-4.46,3.59-8.5,5-12.89,1-3.07,2.25-6.06,3.13-9.16,1.36-4.75,3.87-9.07,5-13.9a11.34,11.34,0,0,1,.72-2.69c3.69-7.14,5.31-15.06,8.51-22.4,1.48-3.37,2.37-7,3.63-10.47,1.73-4.74,3.56-9.48,5.38-14.21s3.61-9.81,5.37-14.72c.52-1.45.87-3,1.43-4.4,3-7.43,5.57-15,8.29-22.49a81.72,81.72,0,0,0,3.69-12.88,14.11,14.11,0,0,0-3.84-12.76,31.53,31.53,0,0,0-11.68-8,59.6,59.6,0,0,0-15-3.31c-5.92-.61-12-.28-17.94-.1s-12-.23-18.07.74c-5,.8-10.12,1.13-15.1,2.23a130.07,130.07,0,0,0-13.6,3.27,68.51,68.51,0,0,0-21.36,11.11c-7.25,5.8-13.36,12.33-17.5,20.65-.34.69-.67,1.39-1.06,2-1.4,2.42-3.48,4.66-4.1,7.26-1.72,7.24-5.49,13.71-7.36,20.93-1.29,5-4,9.62-5.45,14.66a14.71,14.71,0,0,1-.74,2.68c-3.67,7.15-5.3,15.07-8.51,22.4A97.4,97.4,0,0,0,850.19,208c-1.6,5.28-3.8,10.38-5.64,15.61-1.94,5.48-4.14,10.9-6.22,16.36a7.45,7.45,0,0,0-.54,1.76c-.25,2,0,2.28,2,2.28q20.7,0,41.38,0a12.3,12.3,0,0,0,2.71-.66c.44-.1,1.14-.4,1.31-.22,1.5,1.64,3.42.86,5.13.88C897.27,244.08,904.25,244,911.23,244Zm-402.59,115v90.21a37.68,37.68,0,0,0,.05,4,1.72,1.72,0,0,0,1.13,1.08,12,12,0,0,0,2.48.05c6.81,0,13.63.14,20.44,0s13.37.67,20.06-.84c3.16-.71,6.62-.1,9.94-.13,1.47,0,3.37.44,4.31-.3,1.21-.95,1.67-2.87,2.41-4.39.13-.27-.06-.68,0-1a63.73,63.73,0,0,1,3.15-9.62c3.38-7,5.28-14.45,7.83-21.69a39.78,39.78,0,0,1,2-4.66c1.6-3.2,2.25-6.73,3.48-10,1.92-5.19,4.07-10.27,5.63-15.62,1.37-4.68,4.08-9,5.4-13.68,1.14-4,2.73-7.86,4-11.8,1.65-4.95,3.32-9.92,5.43-14.69,2.23-5.08,3.42-10.51,5.68-15.59,1.49-3.35,3.29-6.78,4-10.26,1-4.8,3.18-9,4.88-13.47a56.53,56.53,0,0,0,2.25-8,3.44,3.44,0,0,0-.55-2.7c-4.49-4.66-8.73-9.7-13.81-13.65-4.85-3.77-9.74-7.55-14.7-11.21-7.49-5.53-15.33-10.52-22.84-16-6.37-4.65-12.82-9.18-19.19-13.83-2.2-1.61-4.27-3.38-6.36-5.13-3.83-3.2-7.87-6.2-11.38-9.72-3.27-3.28-5.81-7.26-8.91-10.71-6.59-7.34-10.67-16-13.87-25.17-1.22-3.5-2.73-7.12-2.84-10.72-.12-3.91-1.35-7.66-1.17-11.54.22-4.52-.29-9,.81-13.58.89-3.68,0-7.7,1.11-11.53.7-2.37,1.17-4.8,1.87-7.19.82-2.85,2.55-5.36,3.07-8.19.6-3.25,2.72-5.55,4.05-8.32,2.31-4.79,5.87-8.64,9.29-12.57a41.12,41.12,0,0,1,7.67-6.68c3.05-2.1,5.86-4.59,9.56-5.8,2.45-.81,4.6-2.49,6.9-3.78.44-.25.91-.47,1.36-.71a6,6,0,0,0-1.35-.32c-21.44,0-42.88-.07-64.32,0-5.19,0-10.37.62-15.55,1a2,2,0,0,0-.49,0c-5.07,2.14-10.61,2.22-15.85,3.83-8.44,2.6-15.37,4.43-24.44,10.92-5,3.6-9,8.09-13.15,12.44-1.48,1.54-2.26,3.74-3.62,5.43-.94,1.17-.5,1.27.56,1.27q14.7,0,29.41,0c10,0,19.95,0,29.92,0,.75,0,2.13.28,2.15.51.12,1.42,2,2.62.95,4-.83,1-1.55,2.65-3.42,2.49-1-.09-2,0-3,0-19.28,0-38.56.06-57.84-.06-2.66,0-4.28.68-5.11,3.21-.28.87-1.13,1.6-1.26,2.46-.58,3.9-2.39,7.32-4,10.81-1.7,3.64-1.79,7.8-3.94,11.34-1.08,1.8-1.37,4.07-2.07,6.11-1.15,3.34-2.13,6.76-3.54,10-3.15,7.19-5.51,14.67-8.28,22-2.28,6-3.92,12.39-6.35,18.31-3,7.38-4.68,15.33-8.75,22.29-1.6,7.74-5.45,14.71-7.63,22.26-1.84,6.35-5,12.24-6.73,18.65a81.16,81.16,0,0,1-3.83,9.87c-1.38,3.26-2.21,6.7-3.52,10a74.92,74.92,0,0,0-3.45,9.58,40.47,40.47,0,0,1-3.65,9.43c-1.65,3.07-2.39,6.64-3.45,10a53.28,53.28,0,0,0-2.4,8.45c-.64,4.54-2.81,8.79-2.3,13.55a54.35,54.35,0,0,1,0,8c-.28,7.5,2.72,13.55,8.08,18.59a7.7,7.7,0,0,0,1.91,1.4c2.64,1.23,5.42,2.2,8,3.58,3.15,1.69,6.82.84,10,2.35.95.46,2.3.07,3.46.07h73.29c1.17,0,2.33,0,3.49,0a5.12,5.12,0,0,1,3.51,2.93c.34,1.34-.62,2-1.34,2.94-1.15,1.45-2.64,1.08-4.06,1.08-18,0-35.9-.07-53.85.06-5,0-10-.58-15.08.81-3.17.88-6.68.52-10.05.9a69.67,69.67,0,0,0-13.1,2.23c-4.72,1.46-9.59,2.54-14.1,4.49-7,3-13.52,6.83-18.72,12.58-1.84,2-3.63,4.11-5.39,6.21A50.05,50.05,0,0,0,302.17,429c-1.62,3.48-3.17,7-5,10.38-2.23,4.1-3,8.74-4.91,12.93-.58,1.23.18,2.06,1.62,2.1.83,0,1.66,0,2.49,0H428.49c.66,0,1.33,0,2,0,1.84.11,2.8-.5,3.46-2.48,1.21-3.62,3-7,4.45-10.6.4-1-.09-2.78.51-3.2,1.46-1,.64-2.44,1.25-3.56,3.85-7.06,5.4-15,8.59-22.35a99,99,0,0,0,3.6-10.49c1.33-4.37,3.36-8.55,4.84-12.93,1.57-4.65,2.85-9.45,5.57-13.64,1.93-9.25,6.33-17.67,9-26.67,1.2-4,3-7.75,4.35-11.65,1-2.9,1.54-6,2.91-8.76,2.93-5.82,4.49-12.1,6.67-18.17.58-1.59,1.34-3.1,2-4.66,1.7-4.12,2.56-8.53,4.61-12.55s1.35-8.54,1.36-12.88a1.32,1.32,0,0,0-.43-.81c-2.56-2.48-4.78-5.38-8.06-7-2.19-1.1-4.52-1.95-6.71-3a3.23,3.23,0,0,1-1.71-4.1,2.66,2.66,0,0,1,3-1.88c2.15.11,4.32,0,6.48,0,6.48,0,13,0,19.45,0,2.15,0,2.86.76,2.95,2.88.05,1,0,2,0,3ZM832,423.47H744.19c-1.75,0-3.43-.14-5.11.94-3.51,2.26-7.16,4.32-10.84,6.3-2.51,1.35-4.63,3.35-7.08,4.6-4.88,2.47-8.95,6.2-13.91,8.51a22,22,0,0,0-3.48,2.43c-5.65,4-11.32,8-16.91,12.13-1.45,1.06-2.45,2.83-4,3.66-4.1,2.21-7.46,5.4-11,8.29-4.74,3.89-9.56,7.74-14,11.94-8,7.58-16.2,15.11-22.89,23.91-5,6.57-10.1,13.17-13.67,20.72a5.52,5.52,0,0,1-.55,1.26c-3.31,4.06-4.7,9-6.4,13.8s-3.68,9.5-4.3,14.71c-.4,3.4-1.45,6.77-1.68,10.22-.18,2.81,0,5.65,0,8.47,0,3.32-.13,6.65,0,10s.62,6.7,1,10a6.4,6.4,0,0,0,.32,1.36A56,56,0,0,0,616.33,611a22.6,22.6,0,0,0,10.6,8.69c3.57,1.32,7.45,2.74,11.57,2.25a29.78,29.78,0,0,1,6.47,0c4.76.47,9.36-.84,14-1,1.8-2.09,4.87.12,6.67-2,5.44-.75,10.12-3.67,15.22-5.42,4.33-1.47,8.33-4,12.35-6.24s7.86-5,11.91-7.36a58.29,58.29,0,0,0,10.12-6.79c4.07-3.69,8.51-7,12.81-10.28,4.54-3.5,8.87-7.29,13.31-10.9,5.19-4.22,9.49-9.51,14.82-13.65,1.56-1.22,2.72-3,4.29-4.16s2-3.56,4.14-4.21c3.54-6.16,9.9-9.8,13.84-15.68,2.33-3.48,5.79-6.19,8.29-9.58,1.85-2.5,4.57-4.39,5.94-7,2.68-5.14,7-8.91,10.14-13.69,4.27-6.56,8.93-12.87,13-19.59,1.67-2.79,3-5.8,4.94-8.41,4.07-5.55,6.34-12,9.83-17.88,1.8-8.16,6.1-15.45,8.25-23.51a22.77,22.77,0,0,1,3.75-8.4c1.61-2,3.53-2.17,5.11-.15a23.24,23.24,0,0,1,2,4.12c.61,1.24,1.17,2.53,1.9,3.7,2.3,3.7,4.69,7.36,7,11.05,1.66,2.63,3,5.52,5,7.87,4,4.73,8.33,9.24,12.66,13.71,3.17,3.28,6.28,6.61,10.11,9.22a73.69,73.69,0,0,0,19.87,9.84c2.52.87,5,2.07,7.74,1.7,3-.4,5.67,1.23,8.57,1.05q6.78-.42,13.54-1c.72-.07,1.37-.71,2.09-.95,12.56-4.15,18-9.76,24.17-20.45a39.54,39.54,0,0,0,5-14.87c2-1.43.66-3.87,1.81-5.76.89-1.46-.4-4.14.33-5.81.91-2.09.8-4.08.83-6.13.06-4.32-.27-8.67.1-12.95.37-4.46-1.12-8.67-1.14-13.06,0-3.35,0-6.9-1.12-10a42.06,42.06,0,0,1-1.57-7.25c-.4-2.48-1.34-4.92-1.3-7.52a18.81,18.81,0,0,0-.93-4.07c-.3-1.38.66-3-.84-4.14-.64-5.92-2.75-11.49-4.26-17.19-.91-3.42-1.39-7-2.82-10.28-1.29-3-2-6.14-3.06-9.2C952,333.39,951,329,949.06,325c-3.06-6.38-5.15-13.21-9-19.2-1-1.53-1.15-3.6-2.21-5-3.51-4.8-5.93-10.24-9.28-15.12-4.55-6.66-10-12.53-15.39-18.53-1.69-1.89-4.16-3.11-5.83-5-1.87-2.15-4.61-2.71-6.69-4.46-2.42-2-10.69-5.47-13.11-5.58-6.18-.3-12.55-.65-18.42,1.26A80.36,80.36,0,0,0,853.36,261c-6.08,3.62-11.16,8.65-16.35,13.4-4.38,4-7.93,8.93-11.83,13.44-3.45,4-6.42,8.28-9.45,12.57-4,5.63-7.77,11.33-11.35,17.23-3.07,5-6.28,10-9,15.25-6.83,13.25-13.88,26.41-18.78,40.56-2.06,2-1.49,5-2.63,7.39-1.65,3.46-2.68,7.2-4.13,10.75-1.67,4.12-2.19,8.69-4.82,12.47-.51.72,0,1.55,1.15,1.51,1.33-.05,2.66,0,4,0H887.87a37.53,37.53,0,0,0,9.58-.89,55.39,55.39,0,0,0,15.14-6.77c5.32-3.26,9.62-8,13.66-12.66,2.93-3.4,5.9-6.93,7.54-11.3a17.77,17.77,0,0,1,2.46-4.45c2-2.58,4.18-2.46,5.8.31.74,1.25.47,2.56-.14,4.05-2.3,5.7-4.32,11.51-6.39,17.29-1.24,3.48-2.31,7-3.57,10.49-2.09,5.78-4.37,11.49-6.38,17.29-1.52,4.41-1.54,4.59-5.86,4.59Zm-166.72-108v80.24c0,1.32,0,2.65,0,4,0,.28.24.76.41.78a1.8,1.8,0,0,0,1.32-.18c2-1.95,3.86-4.18,6-5.92a192.44,192.44,0,0,0,15.35-13.44c5.8-5.72,11.59-11.44,17.27-17.28,5.84-6,11.56-12.13,17.27-18.26a55.71,55.71,0,0,0,6-7c2.63-4,5.9-7.44,8.54-11.4,2.45-3.67,5.32-7,7.82-10.69s4.79-7.74,7.45-11.35,4.7-7.43,7.23-11c2.12-3,3.12-6.85,5.45-9.63,2.61-3.11,3.41-7,5.47-10.27a122.45,122.45,0,0,0,8-16.08c2.39-5.49,5.09-10.83,7.35-16.39,1.26-3.13,2-6.48,3.68-9.44,3.45-6,3.77-13,6-19.45-.71-2,1.08-3.62,1-5.56a33.65,33.65,0,0,1,.81-6.09,113.81,113.81,0,0,0,1.09-16.51,71.35,71.35,0,0,0-1-14c-1-4.9-1.35-10-3-14.68-.84-2.39-.41-4.93-1.78-7.25-1.22-2.07-1.36-4.76-2.45-6.94-4.27-8.6-8.61-17.19-15.83-23.84-1.45-1.34-2.19-3.2-4.09-4.29s-3-3.1-4.67-4.44c-2.46-2-5.07-3.75-7.68-5.51s-6-2.44-8.74-4.11c-4.65-2.87-9.88-3.66-15-4.78-4-.88-19.81.14-24.5.91-.29.05-.54.29-.83.38-2.53.7-5,1.68-7.43,2.53a40.25,40.25,0,0,0-20.56,15.85,71.69,71.69,0,0,0-8.5,15.91c-1.36,3.75-2.78,7.5-4,11.28-1.34,4-1.61,8.3-2.33,12.46-.9,5.24-.8,10.66-1.13,16a4.84,4.84,0,0,1,0,1.48c-.24.56-.67,1.36-1.14,1.46a9.83,9.83,0,0,1-4.29.24c-.71-.2-1.12-1.75-1.48-2.76a7.66,7.66,0,0,1,0-2c-.39-6.34.83-12.73-.93-19-.72-2.58-.26-5.53-1.17-8-1.25-3.37-1.45-7-2.86-10.27s-2.27-7.15-4.23-10.19c-4.18-6.46-7.89-13.24-14.55-17.93-4.88-3.45-9.43-7.23-15.25-9l-5.75-1.77c-2.07-.64-4-1.69-6.3-1.7a51.18,51.18,0,0,1-6.07-.92c-5.9-.73-11.66,1.15-17.53,1a3,3,0,0,0-.9.23c-2.94.91-5.9,1.8-8.83,2.75-6,2-11.92,4.18-17.18,7.91-2.62,1.85-5,4.06-7.59,5.77-4.89,3.2-8.22,7.66-11.49,12.21a52,52,0,0,0-6.45,12.77c-1.59,4.41-3.86,8.57-3.57,13.47,0,.33.14.79,0,1-1.77,2-.54,4.43-1,6.58-.52,2.34-1.18,4.63-1,7.07.39,4.51-.53,9,.88,13.58,1,3.15.76,6.66,1.15,10,.06.58.61,1.09.74,1.67.83,3.65,3,6.85,4,10.28,1.54,5.05,4.53,9.15,7,13.56,4.17,7.45,10.51,13.27,15.86,19.84,2.13,2.61,5,4.62,7.53,6.85,5.13,4.47,10.13,9.08,15.49,13.29,3.52,2.76,6.8,5.88,10.5,8.39,6.84,4.63,13.17,9.9,19.77,14.83,2.61,1.94,4.81,4.41,7.4,6.26a31.45,31.45,0,0,1,8.46,8.44,13.56,13.56,0,0,0,2.69,2.4c.42-1.15.85-2.3,1.25-3.46.3-.88.61-1.75.86-2.64,1.49-5.34,3.76-10.4,5.67-15.59,1.42-3.89,2.39-7.92,4.27-11.7.78-1.56,1.86-3.36,2.06-5.08.58-4.75,3.13-8.71,4.52-13.11,1.56-4.89,4.2-9.53,3.59-15-.4-3.53-1.3-6.75-3.88-9.38a19.25,19.25,0,0,0-6.94-5,44.7,44.7,0,0,1-5.39-2.63,3.37,3.37,0,0,1-1-5.27c1.13-1.45,2.51-1.75,4.3-1.74,16,.07,31.9,0,47.86,0,4.32,0,8.64.13,13,0,2.11-.09,3,1.41,3.85,2.62,1.14,1.68-.37,4.43-2.31,4.36-3.58-.14-6.76,1.44-10.15,2a24.59,24.59,0,0,0-11.9,5c-.48.39-1.06.65-1.57,1-2.89,2.1-5.49,4.48-6.89,7.86-1.68,4.07-3,8.21-3,12.71Q665.26,275.06,665.23,315.42Zm-361,316.41q23.19,0,46.36,0a20.89,20.89,0,0,0,9.44-2.5c4.2-2.1,8.16-4.35,10.91-8.61,1.77-2.76,3.78-5.38,5.05-8.41.65-1.55.39-3.55,1.2-5,4-7,5.94-14.86,8.6-22.35,3.19-9,6.93-17.76,9.71-26.89,1.34-4.39,3.35-8.58,4.85-12.93,1.35-3.93,2.2-8,4.61-11.54-.39-2.26,1.7-3.69,1.95-5.66.64-5,3.16-9.34,4.8-14,2.31-6.51,4.46-13.08,7.15-19.46,1.79-4.24,2.58-8.92,4.51-13.07,2.61-5.61,3.7-11.72,6.45-17.27,1.33-2.66,1-2.85-1.89-2.85H398.47c-9.64,0-19.28-.17-28.91,0s-19.39-1.07-29,1c-6-.79-11.93.79-17.55,2.23-6.78,1.73-13.78,3.39-19.89,7.26-1.94,1.23-4.21,2-6.12,3.23-4.54,3-8.16,7.05-11.92,10.92-1.77,1.82-3.78,3.73-4.72,6-1.9,4.57-5,8.46-6.76,13.15-2,5.14-4.6,10.07-6.11,15.39-1.23,4.32-3.37,8.26-4.65,12.53-.88,3-1.45,6.1-2.89,8.76-3,5.47-4,11.6-6.52,17.24-.67,1.55-1.69,3.05-2,4.63-1.14,5.32-3.26,10.3-5.17,15.31s-3.77,10.39-5.79,15.54a54.28,54.28,0,0,0-2,6.14c-.54,2.1-.53,4.36-.93,6.56a24.94,24.94,0,0,0,.73,10.54c1.41,5.52,4.66,9.64,9.55,11.77a27.36,27.36,0,0,0,11,2.34C273.94,631.75,289.06,631.83,304.18,631.83ZM163.29,180.49l.26,0c0,3-.65,6.16.15,8.92,1.35,4.7,1.53,9.56,2.64,14.29a50.32,50.32,0,0,0,3.49,11c6.59,13.25,13.3,26.43,20.6,39.31,3.71,6.56,6.9,13.42,10.61,20,3.31,5.9,6.26,12,9.41,18a1.46,1.46,0,0,0,1,.73,1.4,1.4,0,0,0,1-.76c1.64-4,3.78-7.89,4.75-11.94.92-3.82,2.67-7.25,3.67-11,.82-3.09,2.44-5.95,3.55-9s2-6.15,3-9.2c1.29-3.78,2.5-7.61,4-11.29,1.42-3.4,2.77-6.82,4-10.31,2.56-7.4,5.28-14.74,8-22.11,1.31-3.6,2.66-7.2,4-10.8,1.4-3.8,2-7.87,3.22-11.63,1.54-4.73,1.6-9.58,2.71-14.29,1-4-.61-8.05-1.15-12-.35-2.55-.48-5.69-2.78-7.76-.88-5.08-4.08-8.72-7.38-12.41a25.39,25.39,0,0,0-9.78-6.55c-2.49-1-3-2.52-2.8-4.81.18-1.71.95-2.49,2.77-2.59,1-.05,2,0,3,0h73.75c1.33,0,2.66,0,4,0a4.41,4.41,0,0,0,1.29-.48l-.7-.7c-4.89-4.86-9.6-9.9-15.1-14.09a42.3,42.3,0,0,0-5-3.61c-6.87-3.79-13.32-8.42-21.06-10.5-2.37-.64-4.63-1.64-6.93-2.5a53.74,53.74,0,0,0-7.19-1.83,71.6,71.6,0,0,0-7.54-1,61.65,61.65,0,0,0-18.48,1c-4,.74-7.81,3-11.85,3.76-4.29.82-7.64,3.35-11.3,5.22a43.75,43.75,0,0,0-10.38,7.34c-4.94,4.77-10.14,9.31-14.24,15s-8.42,11.3-11.54,17.65a82.14,82.14,0,0,0-5.21,11.78c-1.4,4.6-2,9.45-3,14.19C163.69,170.4,163.71,175.49,163.29,180.49ZM248.5,413.38l-1.17-16.52c-1.59-1.76-.65-4-1.19-6-2.12-.1-4.24-.19-6.36-.31-2.42-.15-4.75.7-7.07.88-8.22.62-15.22,4.06-22.05,8.28-3.55,2.2-6.11,5.37-9.06,8.17-4.76,4.52-8,10.1-11.12,15.82A179.2,179.2,0,0,0,179,450.36c-1.51,4.35-3.18,8.65-4.93,12.91-1.59,3.83-2.5,7.88-4.35,11.67a36.5,36.5,0,0,0-3,8.18c-1,4.65-3.1,8.72-4.63,13.08-2.64,7.54-5.17,15.11-8.32,22.47-.68,1.58-1,3.56-1.51,5.35-1.39,4.57-4.53,8.53-4.69,13.51-1.69.66-.7,2.33-1.31,3.45-3.87,7-5.49,15-8.56,22.37-1.35,3.23-3.48,6.36-3.11,10.17-3,5.11-4.48,10.77-6.38,16.3-1.55,4.49-3.55,8.83-5.22,13.28-.86,2.31-1.34,4.76-2.17,7.08s-1.89,4.54-2.77,6.83a5.55,5.55,0,0,0-.07,1.69,5.3,5.3,0,0,0,1.69-.39c2.25-1.43,4.26-3.46,6.69-4.32,4.63-1.62,8.59-4.4,12.5-7.06,5.72-3.89,12.35-6.52,17.06-11.85a115.77,115.77,0,0,0,21.26-17.27l9.87-9.87a15.64,15.64,0,0,0,2.1-2.13,64.44,64.44,0,0,1,7.75-9.75,20.18,20.18,0,0,0,1.55-2.34c2.7-3.64,5-7.55,7.4-11.36A186.51,186.51,0,0,0,218.15,520c3.08-6.7,6-13.44,9.14-20.14,2.4-5.18,3.33-10.88,6-15.94a38.58,38.58,0,0,0,2-5.64,83.07,83.07,0,0,0,2.94-8.74c1.24-5.45,4.15-10.49,4-16.27,1.62-1.59.45-3.79,1.17-5.5,2.43-5.72,1.89-12,3.82-17.85C246.6,424.35,249.09,419,248.5,413.38Zm84.6-239v-.5c0-3,.13-6,0-9a39.14,39.14,0,0,0-1.09-9c-.69-2.25-.67-4.59-1.51-6.83a47.88,47.88,0,0,0-6.29-12.36c-2.56-3.38-4.1-4.2-7.94-2.92a52.15,52.15,0,0,0-19.57,11.65,63.41,63.41,0,0,0-6,7,70.72,70.72,0,0,0-6.36,8.83,139.58,139.58,0,0,0-8.35,17c-2.32,6-4.73,12-6.69,18.16-1,3.22-1.8,6.6-3.37,9.55-2.91,5.5-3.92,11.66-6.56,17.23a59.78,59.78,0,0,0-2,5.63c-1.8,5.07-3.58,10.14-5.42,15.2q-3.24,8.86-6.55,17.71c-1.85,4.9-3.57,9.83-5.1,14.83a30.93,30.93,0,0,1-1.88,4.21c-1.93,4-2.56,8.48-4.59,12.56a52.84,52.84,0,0,0-3.95,10.78,35.07,35.07,0,0,1-2.92,7.79,14.11,14.11,0,0,0-.51,1.78,34.62,34.62,0,0,0-1.93,5.16c-.45,2.32,1.94,3.45,2.81,5.28,2.89,6.12,6.2,12,9,18.21.69,1.54.71,1.61,2.19,1,4.74-2.14,8.76-5.39,13-8.24,5.3-3.56,10-8,15-12a166.83,166.83,0,0,0,12.64-11.6c3-3,5.72-6.22,8.48-9.43,3.58-4.14,7.6-8,10.47-12.62,5.41-8.64,11.22-17.05,15.26-26.54,1.85-4.37,4-8.65,5.64-13.11.48-1.3.68-2.72,1.24-4a79.2,79.2,0,0,0,4-12.29c.89-3.34,1.09-6.83,2.21-10.05,1.69-4.87,2.3-10,3.68-14.91a34.26,34.26,0,0,0,1-6.05,63.9,63.9,0,0,1,.87-6.59c.86-4.58.88-9.33,1.13-14C333.21,179.36,333.1,176.87,333.1,174.38Zm24.66-43H333.34c-4.64,0-4.65,0-2.22,4.21.32.54.84,1,1.2,1.5a82.27,82.27,0,0,1,10.62,22c2.16,6.94,5.15,13.79,5.12,21.3,1.77,2.33.7,5,1,7.56s.62,5,1,7.55c.35,2.31-.93,4.41-.92,6.56a70.82,70.82,0,0,1-2,16.64c-1.13,4.84-2.35,9.66-3.75,14.42-1.24,4.26-3.29,8.25-5.08,12.33-4.84,11-9.28,19.82-14.54,27.36-3.63,5.19-6.86,10.59-11.17,15.36-3.65,4-6.72,8.66-10.71,12.43-6.46,6.08-12.11,13-19.27,18.38-3.5,2.63-6.41,6-9.91,8.67-2.08,1.57-3.85,3.44-5.9,5-4,3-8.26,5.68-12.41,8.5-3.11,2.11-6.21,4.25-9.34,6.33-1.52,1-3.13,1.89-4.69,2.82.64,1.4,1.33,2.77,1.92,4.19a29,29,0,0,1,1,3.07c2,7,5.56,13.46,6.26,20.83a7.06,7.06,0,0,0,1.06,3c.66,1.05.83,2.36,3,2.33,13.62-.21,27.24-.1,40.86-.11,2.32,0,3.09-.43,3.7-2.64,1.51-5.5,3.05-11,5.94-16,1.12-2,1.38-4.4,2.07-6.61.64-2.05,1.28-4.11,2-6.14s1.62-4.31,2.44-6.46a49.59,49.59,0,0,0,2.41-6.47c1-4.4,3.41-8.24,4.65-12.53.85-3,1.5-6.05,2.87-8.77,2.87-5.67,4.19-11.88,6.57-17.71a46,46,0,0,0,2-5.16c2.22-8.17,6.39-15.65,8.43-23.93.79-3.19,2.39-6.3,3.64-9.43s2.86-6.53,3.51-10c.6-3.14,2.71-5.51,3.47-8.56,1.07-4.32,2.13-8.79,4.14-12.71,3.69-7.16,5.84-14.89,8.53-22.37,2.85-7.95,6.18-15.74,8.63-23.84,2.05-6.77,5.31-13.11,7.05-20a22.19,22.19,0,0,1,1.39-3.41A94.71,94.71,0,0,0,384,141.5c2.06-2.37.1-5.65,1.91-8.2.78-1.1-.06-1.92-1.71-1.92Q371,131.35,357.76,131.37ZM508.64,537.06q0,36.6,0,73.2a10.93,10.93,0,0,0,.58,2.52,18.7,18.7,0,0,0,1.35-2.43c.28-.72.12-1.62.43-2.31,3.32-7.27,5.58-14.95,8.43-22.4,3.11-8.16,5.91-16.48,8.8-24.75,1.36-3.91,2.9-7.76,4.31-11.65s2.68-7.86,4.14-11.74,2.81-8.15,4.34-12.14c2-5.31,3.93-10.66,5.94-16,1.73-4.58,3.64-9.15,5.32-13.72,2-5.46,3.93-11,5.8-16.53s3.43-11.17,6.32-16.31c.15-.27-.35-1.13-.75-1.43s-1,0-1.46,0H510.91c-2.24,0-2.27,0-2.27,2.5Zm-6-161.41v-47.8c0-1.16,0-2.32,0-3.48,0-.16-.39-.33-.62-.43-.06,0-.23.21-.35.33-.33.36-.9.68-1,1.09-.68,4.33-3.09,8-4.43,12.13s-2.15,8.37-4.59,12C489.36,359,485,367.68,482,376.85c-1.42,4.22-3.05,8.37-4.55,12.56-.52,1.45-.95,2.93-1.41,4.39a28.79,28.79,0,0,1-1.44,4.38c-3.68,7.13-5.69,14.92-8.56,22.35-2.81,7.27-5.72,14.58-8,22.1a97,97,0,0,1-3.6,10.46c-.5,1.17-.55,1.25.58,1.28h44.83c1.05,0,1.88.1,1.85-1.47-.09-5.14.23-10.31-.1-15.43s1.08-10.33,1.07-15.52Q502.63,398.8,502.66,375.65Zm138.8-31.12-.17,0c0-2.15.13-4.32,0-6.46s-1-4.39-.89-6.56c.19-5-2.34-9.4-3.09-14.19a.89.89,0,0,0-.75-.46,2.34,2.34,0,0,0-1.16.53c.61,2.77-1.35,4.8-2.13,7.12-1.7,5.09-3.58,10.13-5.4,15.18-2.7,7.5-5.66,14.91-8.48,22.37-1.3,3.45-2.36,7-3.56,10.48-1.91,5.48-4.58,10.73-6.15,16.35-1.49,5.35-4.14,10.24-5.74,15.55-1.41,4.68-2.89,9.41-5.5,13.64-2.13,10.31-7.81,19.42-10,29.71-.17.81-1.77,1.48-.57,2.36.53.39,1.76-.07,2.63-.29,5.28-1.31,9.68-4.31,13.69-7.76a70.13,70.13,0,0,0,12.7-14.62c1.8-2.73,4.13-5.3,5.16-8.31,2.2-6.42,5.71-12.21,8-18.59,2.75-7.54,5-15.19,7.21-22.88.73-2.57.09-5.66,1.22-7.95,1.35-2.72-.22-5.84,1.83-8.21Zm-410.11,2.7a5.63,5.63,0,0,1-1-1.07c-1.36-2.75-2.47-5.64-4.06-8.24s-2.52-5.6-3.93-8.32c-.07-.13,0-.37-.12-.43-.25-.17-.59-.44-.81-.37a1.64,1.64,0,0,0-1,.7c-.2.59,0,1.36-.22,1.9-3.65,7.45-5.41,15.62-8.78,23.18a13.63,13.63,0,0,0-1,3.06,5.55,5.55,0,0,0,.28,1.85,4.06,4.06,0,0,1,1.06-.68c2.78-.73,4.76-2.86,7.23-4.12,3.28-1.68,6.61-3.27,9.83-5.05A12.81,12.81,0,0,0,231.35,347.23Z" transform="translate(-90.71 -44.68)"/><path d="M122.66,272c0,3.54-1.41,4.79-5,4.94a4.82,4.82,0,0,1-4.27-1.79c-1-1.14-1.86-2.07-1.73-3.8a6.32,6.32,0,0,1,6.1-5.48c1.65-.08,2.33,1,3.23,1.87C122.69,269.46,122.67,269.48,122.66,272Z" transform="translate(-90.71 -44.68)"/><path d="M760.68,55.61A5.16,5.16,0,0,1,755,50.37c-.05-4.16,2.35-5.55,4.74-5.68,3.25-.18,5.82,2.07,6.24,5.69C766.22,52.75,763.28,55.57,760.68,55.61Z" transform="translate(-90.71 -44.68)"/><path d="M1118.41,136.36c-3.46-.07-5.37-2.05-5.37-5.54,0-2.68,2.91-5.52,5.56-5.43s5.44,3.07,5.41,6.08C1124,133.84,1121.05,136.41,1118.41,136.36Z" transform="translate(-90.71 -44.68)"/><path d="M531,398.55c3.85,0,5.45-1.42,5.53-4.9.06-3-2.6-6-5.45-6.07-2.69-.05-5.53,3-5.53,6C525.6,397,527.23,398.54,531,398.55Z" transform="translate(-90.71 -44.68)"/><path d="M733.05,474.31c.05,1.27-.3,2.54,1,3.58s2.72,2.41,4.47,2.31a5.81,5.81,0,0,0,3.66-1.73,8,8,0,0,0,1.75-4.16c.28-2.49-3.56-6.36-5.88-5.88-1.43.29-2.65,1.55-4,2.34S733.1,473.05,733.05,474.31Z" transform="translate(-90.71 -44.68)"/><path d="M531,398.55c-3.81,0-5.44-1.51-5.45-5,0-3,2.84-6,5.53-6,2.85.05,5.51,3,5.45,6.07C536.49,397.13,534.89,398.55,531,398.55Z" transform="translate(-90.71 -44.68)"/><path d="M733.05,474.31c.05-1.26-.42-2.67,1-3.54s2.54-2,4-2.34c2.32-.48,6.16,3.39,5.88,5.88a8,8,0,0,1-1.75,4.16,5.81,5.81,0,0,1-3.66,1.73c-1.75.1-3.1-1.21-4.47-2.31S733.1,475.58,733.05,474.31Z" transform="translate(-90.71 -44.68)"/><path d="M314.36,551.08c-3.73,0-5.15-1.26-5.19-4.74-.05-3.74,1.25-5.24,4.69-5.2,1.24,0,2.68-.59,3.64.82s2.15,2.48,2.55,3.91C320.66,548.07,317.19,551.05,314.36,551.08Z" transform="translate(-90.71 -44.68)"/></svg>